<svg width="105" height="124" viewBox="0 0 105 124" fill="none" xmlns="http://www.w3.org/2000/svg">
<path opacity="0.999" fill-rule="evenodd" clip-rule="evenodd" d="M0 0.0299049C8.7365 -0.0496454 17.4711 0.0299049 26.2048 0.263876C37.4808 1.01259 47.9314 4.28819 57.557 10.0907C62.4629 13.8717 67.6103 17.3017 72.9991 20.3854C80.6205 23.7359 88.4197 24.2038 96.3963 21.7893C99.0434 21.5553 101.695 21.4757 104.351 21.5553C104.37 22.9217 103.98 24.1711 103.181 25.2988C87.3758 53.4737 71.5438 81.7047 55.6852 109.997C49.4518 110.544 43.2127 110.619 36.9675 110.231C20.6344 91.3677 9.94988 69.6084 4.9134 44.9524C3.84649 37.5028 3.22272 30.0157 3.04163 22.4912C1.83948 15.0228 0.825452 7.53571 0 0.0299049ZM50.0699 90.3429C49.7578 90.4974 49.4462 90.6565 49.134 90.8109C43.559 68.0876 38.0999 45.3128 32.756 22.4912C32.8066 22.0513 32.9624 21.6582 33.224 21.3213C33.9886 21.092 34.7686 21.0125 35.5637 21.0873C40.5735 43.2959 45.8767 65.4437 51.4738 87.5353C50.9782 88.4852 50.5103 89.4211 50.0699 90.3429ZM53.8135 84.7276C53.5014 84.882 53.1897 85.0411 52.8776 85.1956C47.5117 63.9697 42.2085 42.6782 36.9675 21.3213C38.0915 20.9423 39.1832 21.0172 40.2431 21.5553C45.2772 41.7283 50.2688 61.9294 55.2173 82.1539C54.6366 82.9635 54.1686 83.8198 53.8135 84.7276ZM44.9225 22.0232C44.9225 22.3368 45.0784 22.4912 45.3905 22.4912C49.9057 40.5538 54.2735 58.6445 58.4929 76.7726C57.937 77.8114 57.469 78.9064 57.0891 80.0482C56.8004 79.9967 56.5664 79.8423 56.3872 79.5802C51.8635 61.1714 47.3399 42.7672 42.8168 24.363C42.5047 23.4271 42.5047 22.4912 42.8168 21.5553C43.4513 21.9671 44.1532 22.1215 44.9225 22.0232ZM30.4163 22.0232C30.7284 22.4912 31.0401 22.9591 31.3522 23.4271C37.0092 46.7915 42.4687 70.1886 47.7302 93.6185C47.0798 94.2737 46.6118 95.0551 46.3264 95.9583C45.7064 96.6368 45.3166 96.4824 45.1565 95.4903C39.4565 71.2836 33.6072 47.105 27.6086 22.9591C28.5029 22.5005 29.4388 22.1917 30.4163 22.0232ZM25.7369 22.9591C32.0064 47.9566 38.2455 72.9916 44.4546 98.064C43.5215 99.0748 42.8973 100.245 42.5828 101.574C41.7405 102.093 41.1944 101.779 40.945 100.638C34.9081 75.2097 28.903 49.7863 22.9292 24.363C24.0144 24.1337 24.9503 23.6657 25.7369 22.9591ZM55.2173 27.6386C55.0844 28.5323 55.2402 29.3138 55.6852 29.9783C58.4793 42.7812 61.5991 55.4952 65.0441 68.1156C64.425 68.4994 64.1134 69.0422 64.1082 69.7534C63.7961 69.7534 63.6403 69.9079 63.6403 70.2214C62.9543 69.8236 62.564 69.2013 62.4704 68.3496C59.1073 53.9604 55.5977 39.6132 51.9417 25.2988C53.9047 24.8028 54.9969 25.5796 55.2173 27.6386ZM57.0891 28.5744C56.9332 28.2609 56.777 27.9521 56.6211 27.6386C56.7498 26.581 57.2178 26.4266 58.025 27.1706C61.2411 39.6273 64.3604 52.1026 67.3838 64.6061C66.9056 65.0038 66.5158 65.4718 66.214 66.0099C63.1414 53.5299 60.0998 41.0545 57.0891 28.5744ZM37.9034 95.9583C24.6943 76.1877 19.2348 54.3534 21.5254 30.4462C21.4505 29.6507 21.5282 28.8692 21.7594 28.1065C27.3653 50.6848 32.7467 73.3051 37.9034 95.9583ZM71.1274 35.5936C72.4502 41.6628 73.6982 47.7461 74.8709 53.8434C74.4226 54.0539 74.0324 54.3675 73.701 54.7793C71.9322 47.2079 70.1386 39.646 68.3197 32.084C68.6178 31.2838 69.0857 31.2043 69.7235 31.85C70.1985 33.1509 70.6664 34.3957 71.1274 35.5936ZM71.5953 32.7859C71.6234 32.5332 71.7792 32.3741 72.0632 32.318C72.9439 32.5941 73.8017 32.9076 74.6369 33.2539C75.7319 38.186 76.9018 43.0994 78.1465 47.9941C77.8185 49.1078 77.2729 50.1232 76.5087 51.0357C74.9327 44.8869 73.2949 38.8037 71.5953 32.7859ZM76.7427 33.7218C77.5227 33.7218 78.3023 33.7218 79.0824 33.7218C79.6411 37.0489 80.4212 40.3245 81.4221 43.5486C81.1067 44.4939 80.5606 45.2707 79.7843 45.8883C78.4432 41.9108 77.4296 37.8584 76.7427 33.7218ZM87.9733 33.7218C86.3458 36.347 84.708 39.0002 83.0599 41.6768C82.0913 39.0985 81.3894 36.4452 80.9542 33.7218C83.2939 33.7218 85.6336 33.7218 87.9733 33.7218ZM64.5762 29.5103C64.9323 29.9268 65.4002 30.2403 65.98 30.4462C68.0169 39.2201 70.2008 47.952 72.5312 56.651C72.2584 57.3529 71.8686 57.9753 71.3613 58.5228C68.7998 49.2154 66.3824 39.8565 64.1082 30.4462C64.1283 30.0157 64.2842 29.7069 64.5762 29.5103ZM60.3647 28.1065C60.6768 28.1065 60.9884 28.1065 61.3006 28.1065C64.5041 38.813 67.3118 49.6553 69.7235 60.6285C69.6707 61.2275 69.3585 61.6159 68.7877 61.7984C65.6838 50.6473 62.8761 39.4167 60.3647 28.1065ZM48.6661 22.9591C48.9979 23.3803 49.4658 23.5394 50.0699 23.4271C53.6371 39.646 57.5364 55.79 61.7685 71.8592C61.4405 72.9729 60.8949 73.9883 60.1307 74.9008C55.93 57.7179 51.6403 40.5585 47.2623 23.4271C47.6483 23.0106 48.1163 22.8562 48.6661 22.9591Z" fill="#FF9B50"/>
<path opacity="0.871" fill-rule="evenodd" clip-rule="evenodd" d="M44.9226 22.0233C44.1533 22.1215 43.4514 21.9671 42.8169 21.5553C42.5048 22.4912 42.5048 23.4271 42.8169 24.363C47.34 42.7672 51.8636 61.1714 56.3873 79.5803C56.5665 79.8423 56.8005 79.9968 57.0892 80.0482C56.88 81.4614 56.4902 81.6205 55.9193 80.5162C56.084 82.4067 55.3821 83.8105 53.8136 84.7277C54.1687 83.8198 54.6367 82.9635 55.2174 82.154C50.2689 61.9295 45.2773 41.7284 40.2432 21.5553C39.1833 21.0172 38.0916 20.9423 36.9676 21.3214C42.2086 42.6783 47.5118 63.9697 52.8777 85.1956C52.9512 85.8367 52.873 86.4637 52.6437 87.0674C52.3316 86.1315 52.0199 85.1956 51.7078 84.2597C51.7677 85.6589 51.7677 87.0627 51.7078 88.4712C51.399 89.3229 50.8529 89.9499 50.07 90.343C50.5104 89.4211 50.9783 88.4852 51.4739 87.5353C45.8768 65.4437 40.5736 43.296 35.5638 21.0874C34.7687 21.0125 33.9887 21.0921 33.2241 21.3214C32.9625 21.6583 32.8067 22.0513 32.7561 22.4912C38.1 45.3128 43.5591 68.0876 49.1341 90.8109C48.8454 90.7594 48.6114 90.605 48.4322 90.343C48.3452 91.5315 48.1112 92.6219 47.7303 93.6186C42.4688 70.1887 37.0093 46.7915 31.3523 23.4271C31.641 23.4786 31.875 23.633 32.0542 23.895C32.0907 22.8843 32.1689 21.9484 32.2882 21.0874C33.4973 20.6709 34.7454 20.5118 36.0317 20.6194C36.1876 22.4912 36.3438 22.4912 36.4997 20.6194C37.9119 20.5446 39.3158 20.6194 40.7112 20.8534C41.0041 21.2044 41.2381 21.5928 41.4131 22.0233C42.5731 20.8675 43.743 20.8675 44.9226 22.0233Z" fill="#FF9B50"/>
<path opacity="0.77" fill-rule="evenodd" clip-rule="evenodd" d="M22.9292 24.363C28.9029 49.7863 34.908 75.2097 40.945 100.638C41.1944 101.78 41.7405 102.093 42.5828 101.574C42.3128 102.58 41.7667 102.734 40.945 102.042C40.7274 101.372 40.3371 100.825 39.7751 100.404C40.251 99.9124 40.3292 99.3649 40.0091 98.766C39.6857 99.8843 39.2178 99.8843 38.6053 98.766C38.8257 97.7739 38.5917 96.838 37.9034 95.9583C32.7466 73.3052 27.3653 50.6848 21.7593 28.1065C21.5281 28.8693 21.4505 29.6507 21.5253 30.4462C20.9605 28.5932 21.1164 26.7214 21.9933 24.8309C22.2071 24.4566 22.5193 24.3021 22.9292 24.363Z" fill="#FF9B50"/>
<path opacity="0.984" fill-rule="evenodd" clip-rule="evenodd" d="M60.3647 28.1065C62.8761 39.4167 65.6838 50.6473 68.7877 61.7984C69.3586 61.6159 69.6707 61.2275 69.7236 60.6285C67.3118 49.6552 64.5041 38.813 61.3006 28.1065C62.1948 28.1392 62.7409 28.6072 62.9384 29.5103C63.4718 28.3311 64.0175 28.3311 64.5762 29.5103C66.3895 29.2155 67.2477 29.997 67.1499 31.85C67.3759 31.4055 67.4536 30.9375 67.3838 30.4462C70.3178 30.8346 71.5658 32.5519 71.1274 35.5936C70.6665 34.3956 70.1985 33.1509 69.7236 31.85C69.0857 31.2042 68.6178 31.2838 68.3197 32.084C70.1386 39.6459 71.9322 47.2079 73.7011 54.7792C74.0324 54.3674 74.4226 54.0539 74.8709 53.8433C74.7329 54.7418 74.3431 55.5233 73.7011 56.1831C73.5452 55.8695 73.389 55.5607 73.2331 55.2472C73.0974 56.3936 72.7858 57.4886 72.2972 58.5228C69.4414 62.2195 66.7119 65.9631 64.1082 69.7534C64.1134 69.0421 64.425 68.4993 65.0441 68.1156C61.5991 55.4952 58.4793 42.7812 55.6853 29.9782C55.624 29.632 55.7021 29.3184 55.9192 29.0423C56.0549 30.1888 56.3666 31.2838 56.8551 32.318C56.7349 30.989 56.813 29.7396 57.0891 28.5744C60.0998 41.0545 63.1415 53.5298 66.214 66.0099C66.5158 65.4717 66.9056 65.0038 67.3838 64.606C64.3605 52.1026 61.2411 39.6272 58.025 27.1706C57.2178 26.4265 56.7498 26.581 56.6211 27.6385C56.1981 27.3063 56.0423 26.8383 56.1532 26.2347C56.9482 26.1598 57.7283 26.2394 58.4929 26.4687C59.0535 27.1659 59.6773 27.7087 60.3647 28.1065ZM64.5762 29.5103C64.2842 29.7068 64.1284 30.0157 64.1082 30.4462C66.3824 39.8565 68.7998 49.2154 71.3614 58.5228C71.8686 57.9753 72.2584 57.3529 72.5312 56.651C70.2009 47.9519 68.017 39.2201 65.98 30.4462C65.4002 30.2403 64.9323 29.9268 64.5762 29.5103ZM60.3647 28.1065C60.6768 28.1065 60.9885 28.1065 61.3006 28.1065C64.5041 38.813 67.3118 49.6552 69.7236 60.6285C69.6707 61.2275 69.3586 61.6159 68.7877 61.7984C65.6838 50.6473 62.8761 39.4167 60.3647 28.1065Z" fill="#FF9B50"/>
<path opacity="0.804" fill-rule="evenodd" clip-rule="evenodd" d="M30.4162 22.0232C29.4387 22.1917 28.5028 22.5005 27.6086 22.9591C33.6072 47.105 39.4564 71.2836 45.1565 95.4903C45.3165 96.4824 45.7063 96.6368 46.3263 95.9583C45.317 97.9751 44.0694 99.8469 42.5828 101.574C42.8972 100.245 43.5215 99.0748 44.4545 98.064C38.2454 72.9916 32.0063 47.9567 25.7368 22.9591C27.216 21.939 28.7756 21.6255 30.4162 22.0232Z" fill="#FF9B50"/>
<path opacity="0.977" fill-rule="evenodd" clip-rule="evenodd" d="M48.666 22.9592C49.2898 22.9592 49.914 22.9592 50.5378 22.9592C50.4577 24.5034 50.7694 24.6578 51.4736 23.4271C52.4549 24.1805 53.5466 24.728 54.7492 25.0649C55.1732 25.8605 55.329 26.7168 55.2172 27.6386C54.9968 25.5797 53.9046 24.8029 51.9416 25.2989C55.5976 39.6133 59.1072 53.9604 62.4703 68.3497C62.5639 69.2014 62.9542 69.8237 63.6402 70.2215C63.5695 71.7282 63.1797 71.8827 62.4703 70.6894C62.1919 71.3445 62.27 71.9669 62.7043 72.5612C61.7684 73.8106 60.8325 75.0553 59.8966 76.3047C59.5452 75.8929 59.3112 75.425 59.1947 74.9009C59.0964 75.6309 58.8625 76.2533 58.4928 76.7727C54.2733 58.6446 49.9056 40.5539 45.3904 22.4913C45.4185 22.2386 45.5743 22.0795 45.8583 22.0233C46.8677 22.2807 47.8036 22.5942 48.666 22.9592ZM48.666 22.9592C48.1161 22.8563 47.6482 23.0107 47.2622 23.4271C51.6402 40.5585 55.9299 57.718 60.1306 74.9009C60.8947 73.9884 61.4404 72.973 61.7684 71.8593C57.5363 55.7901 53.6369 39.6461 50.0698 23.4271C49.4657 23.5395 48.9978 23.3804 48.666 22.9592Z" fill="#FF9B50"/>
<path opacity="0.711" fill-rule="evenodd" clip-rule="evenodd" d="M33.2239 111.4C42.1148 111.4 51.0058 111.4 59.8967 111.4C59.8967 112.182 59.8967 112.959 59.8967 113.74C51.1602 113.82 42.4256 113.74 33.6919 113.506C33.2801 112.87 33.1238 112.168 33.2239 111.4Z" fill="#FF9B50"/>
<path opacity="0.286" fill-rule="evenodd" clip-rule="evenodd" d="M58.0251 120.759C58.0251 118.733 58.0251 116.702 58.0251 114.676C50.3822 114.676 42.7388 114.676 35.0959 114.676C35.0959 116.234 35.0959 117.797 35.0959 119.355C34.6364 117.736 34.4806 116.019 34.628 114.208C42.583 114.208 50.538 114.208 58.4931 114.208C58.6423 116.482 58.4865 118.668 58.0251 120.759Z" fill="#FF9B50"/>
<path opacity="0.998" fill-rule="evenodd" clip-rule="evenodd" d="M58.0249 120.759C57.476 121.695 56.696 122.397 55.6852 122.865C49.6019 123.179 43.5187 123.179 37.4354 122.865C35.8964 122.205 35.1163 121.035 35.0957 119.355C35.0957 117.797 35.0957 116.234 35.0957 114.676C42.7386 114.676 50.382 114.676 58.0249 114.676C58.0249 116.702 58.0249 118.733 58.0249 120.759Z" fill="#FF9B50"/>
</svg>
