<svg width="133" height="135" viewBox="0 0 133 135" fill="none" xmlns="http://www.w3.org/2000/svg">
<path opacity="0.995" fill-rule="evenodd" clip-rule="evenodd" d="M80.8898 18.055C93.4155 22.0527 102.809 29.7534 109.071 41.1574C109.68 42.8128 109.378 44.3295 108.165 45.7078C106.351 46.6615 104.644 46.4302 103.045 45.0133C93.2403 27.6031 78.5242 20.8494 58.8971 24.7525C54.9052 23.6096 54.2251 21.4846 56.8569 18.3769C60.3294 17.3031 63.8656 16.6399 67.4658 16.3876C72.0277 16.5935 76.5024 17.1493 80.8898 18.055Z" fill="#FF9B50"/>
<path opacity="0.993" fill-rule="evenodd" clip-rule="evenodd" d="M108.963 46.5467C109.4 46.6771 109.761 46.9213 110.045 47.28C115.457 63.9255 112.367 78.9039 100.775 92.2147C99.7573 91.6755 98.8054 91.0021 97.918 90.1943C105.968 80.763 109.452 69.907 108.371 57.6266C108.034 54.6753 107.298 51.8148 106.161 49.0447C106.139 48.4043 106.379 47.8831 106.878 47.4819C107.632 47.2579 108.326 46.9461 108.963 46.5467Z" fill="#FF9B50"/>
<path opacity="0.972" fill-rule="evenodd" clip-rule="evenodd" d="M52.7037 20.7277C53.9181 21.6577 54.6015 22.9173 54.7534 24.5062C39.8342 30.5161 31.1613 41.5136 28.7342 57.4977C27.5676 57.8094 26.3519 57.8819 25.0868 57.7157C27.2012 40.119 36.4068 27.7896 52.7037 20.7277Z" fill="#FF9B50"/>
<path opacity="0.999" fill-rule="evenodd" clip-rule="evenodd" d="M36.4196 57.2411C40.8823 58.5442 42.775 61.4622 42.0978 65.9956C38.7527 76.973 35.2386 87.894 31.555 98.7586C30.6778 102.508 28.3593 104.124 24.6001 103.607C22.5271 102.971 20.5736 102.075 18.7398 100.918C17.6309 99.4044 17.222 97.7188 17.5129 95.8616C20.9855 84.3118 24.6085 72.8102 28.3822 61.3565C29.9106 57.7108 32.59 56.3391 36.4196 57.2411Z" fill="#FF9B50"/>
<path opacity="0.999" fill-rule="evenodd" clip-rule="evenodd" d="M89.1624 81.4464C91.7565 82.3536 93.8914 83.8853 95.5672 86.0411C96.5802 88.0645 96.5845 90.1163 95.5805 92.1959C89.1635 102.6 82.6158 112.917 75.9368 123.147C73.6928 125.467 71.2015 125.743 68.4628 123.974C63.7393 122.247 62.4162 119.118 64.4945 114.585C70.6429 104.459 76.9111 94.4079 83.2993 84.4313C84.7687 82.43 86.7228 81.4349 89.1624 81.4464Z" fill="#FF9B50"/>
<path opacity="0.997" fill-rule="evenodd" clip-rule="evenodd" d="M26.6657 58.9132C27.0702 59.0582 27.3358 59.338 27.4631 59.7521C23.6451 71.7166 19.8128 83.6741 15.9663 95.6246C11.5988 93.0545 8.90866 89.2976 7.89582 84.3532C7.36586 80.085 7.93244 75.9308 9.59535 71.8899C12.6313 63.9401 18.3217 59.6145 26.6657 58.9132ZM17.963 74.7842C18.7444 75.1428 19.5258 75.5014 20.3072 75.86C19.9672 77.0727 19.2584 77.9299 18.1811 78.4315C15.8559 77.6638 13.5522 76.8431 11.2704 75.9695C11.6887 75.058 12.1072 74.1461 12.5255 73.2347C14.3662 73.8543 16.1789 74.3712 17.963 74.7842Z" fill="#FF9B50"/>
<path opacity="0.996" fill-rule="evenodd" clip-rule="evenodd" d="M97.3801 91.3664C102.811 97.1517 103.896 103.719 100.635 111.07C97.4128 119.575 91.3483 124.201 82.4408 124.95C80.6334 124.958 78.9213 124.566 77.3043 123.775C84.1342 113.057 90.8262 102.255 97.3801 91.3664ZM90.2403 107.955C92.6593 109.297 94.9542 110.823 97.1254 112.533C96.4846 113.353 95.8057 114.144 95.089 114.91C93.1257 113.425 91.0614 112.084 88.8955 110.885C88.8437 109.679 89.292 108.703 90.2403 107.955Z" fill="#FF9B50"/>
</svg>
