<svg width="76" height="94" viewBox="0 0 76 94" fill="none" xmlns="http://www.w3.org/2000/svg">
<path opacity="0.977" fill-rule="evenodd" clip-rule="evenodd" d="M18.7193 37.9136C16.7462 33.0592 14.4588 28.2491 11.8575 23.4837C11.5379 21.6214 11.3972 19.7616 11.4353 17.9041C12.0774 14.0856 14.1558 11.2668 17.6707 9.4478C23.742 6.5386 28.9808 7.60772 33.3867 12.6552C35.9803 17.1865 38.4858 21.7658 40.9032 26.3936C33.5574 30.4344 26.1627 34.2745 18.7193 37.9136ZM25.7759 10.2364C27.7819 10.33 29.5101 11.1134 30.9598 12.5869C33.5544 16.5326 35.9118 20.6223 38.0319 24.8555C37.5892 25.0922 37.1467 25.3288 36.704 25.5655C34.7778 21.6992 32.7869 17.8691 30.7311 14.0752C30.0807 13.2848 29.4304 12.4939 28.78 11.7035C27.7378 11.2776 26.7364 10.7888 25.7759 10.2364Z" fill="#FF9B50"/>
<path opacity="0.872" fill-rule="evenodd" clip-rule="evenodd" d="M11.4353 17.9041C11.3972 19.7615 11.5379 21.6213 11.8575 23.4836C14.4588 28.2491 16.7462 33.0591 18.7193 37.9136C16.3079 33.5103 13.9856 29.0604 11.7524 24.5643C10.9653 22.3393 10.8594 20.1192 11.4353 17.9041Z" fill="#FF9B50"/>
<path opacity="0.996" fill-rule="evenodd" clip-rule="evenodd" d="M13.2844 41.1611C13.7226 41.2218 14.1745 41.3217 14.6399 41.4608C15.1955 42.182 15.6659 42.955 16.0506 43.7799C16.6702 43.4486 17.29 43.1172 17.9095 42.7859C18.1463 43.2286 18.3828 43.671 18.6195 44.1137C18.0884 44.3977 17.5573 44.6817 17.0261 44.9657C20.2759 51.2551 23.6775 57.4042 27.2313 63.4133C31.0757 69.5756 36.6117 72.478 43.8388 72.1201C44.4684 72.0611 45.0705 71.9099 45.6452 71.6665C46.1185 72.5516 46.5919 73.437 47.0651 74.3221C39.2876 76.4519 32.6339 74.5457 27.1039 68.6037C21.9432 59.9936 17.1217 51.1888 12.6389 42.1892C12.8202 41.8174 13.0351 41.4747 13.2844 41.1611Z" fill="#FF9B50"/>
<path opacity="0.971" fill-rule="evenodd" clip-rule="evenodd" d="M57.3822 47.6335C57.5618 47.5753 57.7419 47.5928 57.9225 47.686C54.7391 41.3062 51.3786 35.0213 47.8409 28.8309C47.1678 28.8756 46.5451 29.0949 45.9728 29.4883C45.736 29.0456 45.4995 28.6032 45.2628 28.1605C45.8823 27.8292 46.5022 27.4978 47.1217 27.1665C46.4255 26.1773 46.0816 25.1089 46.0909 23.9613C46.4222 23.3105 46.9564 23.139 47.6935 23.4459C52.7782 32.3481 57.5173 41.4247 61.9114 50.6756C63.3841 58.4236 61.1796 64.8387 55.2977 69.9203C54.8244 69.0352 54.351 68.1498 53.8777 67.2646C58.2995 62.834 59.9501 57.5122 58.8298 51.2988C58.5089 50.0122 58.0265 48.7905 57.3822 47.6335Z" fill="#FF9B50"/>
<path opacity="0.988" fill-rule="evenodd" clip-rule="evenodd" d="M18.4905 39.4019C26.4343 35.0974 34.425 30.8819 42.4624 26.7552C42.7351 26.8655 42.9863 27.0159 43.2157 27.2061C44.3569 28.8849 45.2592 30.6792 45.9228 32.5884C37.8022 36.9874 29.6344 41.2976 21.4198 45.5191C20.157 43.8886 19.1425 42.0973 18.3761 40.146C18.4893 39.8997 18.5274 39.6516 18.4905 39.4019Z" fill="#FF9B50"/>
<path opacity="0.09" fill-rule="evenodd" clip-rule="evenodd" d="M13.2844 41.1611C13.9073 40.7914 14.5361 40.7967 15.171 41.1768C15.6787 41.8089 16.1017 42.4934 16.4397 43.2303C16.9708 42.9463 17.502 42.6623 18.0331 42.3783C18.4118 43.0866 18.7903 43.7946 19.169 44.5029C18.6379 44.7869 18.1068 45.0708 17.5757 45.3548C20.7942 51.3744 24.0127 57.3937 27.2313 63.4133C23.6775 57.4042 20.2759 51.2551 17.0261 44.9657C17.5572 44.6817 18.0884 44.3977 18.6195 44.1137C18.3828 43.671 18.1462 43.2286 17.9095 42.7859C17.29 43.1172 16.6701 43.4486 16.0506 43.7799C15.6658 42.955 15.1955 42.182 14.6398 41.4608C14.1744 41.3217 13.7225 41.2218 13.2844 41.1611Z" fill="#FF9B50"/>
<path opacity="0.682" fill-rule="evenodd" clip-rule="evenodd" d="M46.0909 23.9613C46.0816 25.1089 46.4254 26.1773 47.1217 27.1665C46.5021 27.4978 45.8823 27.8292 45.2627 28.1605C45.4995 28.6032 45.736 29.0456 45.9727 29.4883C46.545 29.0949 47.1678 28.8756 47.8409 28.8309C51.3786 35.0213 54.739 41.3062 57.9225 47.686C57.7418 47.5928 57.5618 47.5753 57.3822 47.6335C54.1163 41.5255 50.8504 35.4175 47.5845 29.3095C47.0534 29.5935 46.5223 29.8774 45.9911 30.1614C45.6124 29.4532 45.2339 28.7452 44.8552 28.0369C45.3863 27.7529 45.9174 27.4689 46.4486 27.1849C46.0235 26.4947 45.6891 25.7627 45.4454 24.9894C45.4742 24.5222 45.6896 24.1796 46.0909 23.9613Z" fill="#FF9B50"/>
<path opacity="0.462" fill-rule="evenodd" clip-rule="evenodd" d="M45.6942 34.0766C38.1799 38.4352 30.5258 42.6415 22.732 46.6957C25.2584 51.2099 27.5838 55.7718 29.7081 60.3815C27.2469 55.7785 24.7856 51.1752 22.3244 46.5721C30.1142 42.407 37.9043 38.2417 45.6942 34.0766Z" fill="#FF9B50"/>
<path opacity="0.994" fill-rule="evenodd" clip-rule="evenodd" d="M45.6942 34.0766C47.1244 36.3262 48.4911 38.6688 49.7936 41.1049C51.3858 44.0239 52.8149 47.0161 54.081 50.0815C55.0779 57.8057 51.874 62.9903 44.4697 65.636C38.4351 67.0325 33.5148 65.2811 29.7081 60.3815C27.5838 55.7718 25.2584 51.2099 22.732 46.6957C30.5258 42.6415 38.1799 38.4352 45.6942 34.0766ZM35.3057 43.3876C36.8563 42.7443 37.9258 43.2539 38.5136 44.9165C39.4227 46.0822 39.3856 47.1835 38.4019 48.2203C37.8601 48.4154 37.3641 48.3391 36.9137 47.9916C35.7534 46.6123 35.2173 45.0777 35.3057 43.3876Z" fill="#FF9B50"/>
<path opacity="0.494" fill-rule="evenodd" clip-rule="evenodd" d="M46.1395 70.0363C48.1756 68.9476 50.2114 67.8591 52.2475 66.7704C54.9926 71.9046 57.738 77.039 60.4832 82.1732C58.4471 83.2618 56.4112 84.3504 54.3751 85.439C51.63 80.3049 48.8846 75.1704 46.1395 70.0363Z" fill="#FF9B50"/>
<path fill-rule="evenodd" clip-rule="evenodd" d="M46.689 70.4254C48.548 69.4314 50.4069 68.4375 52.2659 67.4435C54.8691 72.3121 57.4724 77.181 60.0756 82.0496C58.2166 83.0436 56.3577 84.0375 54.4987 85.0315C51.8955 80.1629 49.2922 75.294 46.689 70.4254Z" fill="#FF9B50"/>
</svg>
