<svg width="110" height="140" viewBox="0 0 110 140" fill="none" xmlns="http://www.w3.org/2000/svg">
<path opacity="0.918" fill-rule="evenodd" clip-rule="evenodd" d="M82.6899 14.6763C85.1724 15.3586 86.8754 16.8553 87.7981 19.1658C87.9537 28.8767 89.9778 38.1919 93.8715 47.1143C95.0556 59.0758 91.6083 69.5865 83.5314 78.6473C83.2408 82.7565 82.208 86.6778 80.4347 90.4121C75.9656 97.911 71.4995 105.406 67.0368 112.895C65.7613 112.508 64.8335 111.726 64.2546 110.548C66.958 103.723 69.6608 96.8974 72.3641 90.0728C74.436 84.2427 74.2747 78.5049 71.8797 72.8604C70.3871 70.8714 68.4634 69.4583 66.1105 68.6218C59.7004 83.2859 52.987 97.8103 45.9712 112.195C35.7023 125.083 23.9019 126.538 10.5672 116.561C3.01189 106.694 4.21733 97.9168 14.1835 90.2285C25.5765 85.3536 35.6542 87.3256 44.4157 96.1461C56.9068 68.7906 69.6649 41.634 82.6899 14.6763ZM77.1823 43.9964C84.1375 47.3603 86.6015 52.8538 84.5742 60.4769C84.1418 63.5554 83.2153 66.4281 81.7957 69.0955C80.0612 63.1987 78.3264 57.3027 76.592 51.4059C76.4756 48.8943 76.6717 46.4245 77.1823 43.9964Z" fill="#FB9A51"/>
</svg>
