<svg width="150" height="208" viewBox="0 0 150 208" fill="none" xmlns="http://www.w3.org/2000/svg">
<path opacity="0.894" fill-rule="evenodd" clip-rule="evenodd" d="M120.426 18.3268C122.661 19.1889 124.757 20.311 126.713 21.6929C131.741 33.6552 130.951 45.3601 124.341 56.8072C117.576 72.723 105.917 82.8782 89.3634 87.2732C87.0524 93.3891 85.0119 99.6297 83.2413 105.996C100.252 114.434 105.079 127.405 97.72 144.908C91.6653 158.115 81.4133 164.838 66.9658 165.077C64.7755 173.773 61.478 182.048 57.0731 189.901C53.4306 193.941 48.9102 195.623 43.5127 194.947C33.9537 193.08 27.8571 187.517 25.2221 178.26C24.631 171.559 27.3186 166.755 33.2844 163.85C46.293 165.163 49.4923 171.356 42.8821 182.428C41.0317 183.676 39.0778 184.739 37.0205 185.616C45.4143 191.337 51.7879 189.524 56.1408 180.18C58.1867 174.708 59.9189 169.141 61.3374 163.48C39.2222 158.006 28.1164 143.792 28.0195 120.838C32.0274 96.066 46.1545 80.5177 70.4009 74.1927C75.6066 73.1506 80.8123 72.1086 86.018 71.0666C89.991 58.2913 95.0049 45.91 101.059 33.9232C105.619 26.1641 112.075 20.9653 120.426 18.3268ZM118.178 33.9301C122.297 36.2883 123.479 39.7641 121.722 44.3575C119.593 50.2495 116.047 55.149 111.082 59.0558C106.285 62.6318 101.075 65.4651 95.4513 67.5566C98.0029 59.2915 101.312 51.3482 105.378 43.7267C108.556 38.9524 112.823 35.6868 118.178 33.9301ZM81.4452 88.5415C80.4359 93.6837 79.3552 98.896 78.2024 104.179C59.3133 103.524 49.743 112.678 49.4911 131.642C50.7688 136.5 53.4218 140.323 57.4504 143.112C57.7009 139.237 57.6986 135.322 57.4436 131.368C59.4486 122.907 64.6477 119.742 73.0401 121.873C69.5926 133.598 66.4824 145.382 63.7095 157.227C47.4467 154.223 38.4156 144.383 36.6164 127.707C35.2234 113.893 40.5754 103.623 52.6723 96.8983C61.8433 92.419 71.4346 89.6329 81.4452 88.5415ZM78.6342 122.477C88.8607 130.08 90.3708 139.251 83.1656 149.988C79.5641 153.905 75.1393 156.446 69.8932 157.611C72.2957 145.787 75.2092 134.076 78.6342 122.477Z" fill="#FC9A51"/>
</svg>
