<svg width="94" height="117" viewBox="0 0 94 117" fill="none" xmlns="http://www.w3.org/2000/svg">
<path opacity="0.906" fill-rule="evenodd" clip-rule="evenodd" d="M80.425 48.9861C74.2007 61.2558 67.976 73.5263 61.7517 85.796C61.2507 85.5418 60.7504 85.288 60.2493 85.0338C62.7351 78.5902 65.5351 72.1397 68.6497 65.6816C71.4445 59.5912 71.9203 53.3785 70.0766 47.0423C68.6651 45.1437 66.8529 43.7521 64.6384 42.8668C55.7439 60.7111 46.5992 78.4266 37.2056 96.013C27.7342 104.672 18.1282 104.679 8.38644 96.0338C2.9633 89.5999 3.18853 83.2592 9.06212 77.0134C15.8146 71.4761 23.1019 70.7647 30.9242 74.8802C33.6343 76.1199 35.8839 77.8912 37.6743 80.1935C49.2302 58.0339 60.7864 35.8754 72.3423 13.7158C74.603 13.6033 76.3564 14.4928 77.6009 16.3834C76.8267 19.9855 76.554 23.625 76.7839 27.3035C78.6197 34.4877 79.8329 41.715 80.425 48.9861Z" fill="#FD9A50"/>
<path fill-rule="evenodd" clip-rule="evenodd" d="M60.2494 85.0338C60.7504 85.288 61.2508 85.5418 61.7518 85.796C61.3707 86.5472 60.9896 87.2984 60.6086 88.0496C59.568 87.2186 59.448 86.2131 60.2494 85.0338Z" fill="#747474"/>
</svg>
