<svg width="297" height="247" viewBox="0 0 297 247" fill="none" xmlns="http://www.w3.org/2000/svg">
<path opacity="0.997" fill-rule="evenodd" clip-rule="evenodd" d="M121.974 45.0451C124.23 45.2543 126.467 45.6902 128.69 46.3616C130.027 44.9613 131.009 43.3206 131.632 41.4313C132.885 42.121 134.179 42.594 135.514 42.8508C137.29 41.0087 138.724 38.8732 139.821 36.4523C141.465 37.4358 143.107 38.4106 144.751 39.3941C145.655 37.2274 146.81 35.1965 148.218 33.3099C149.863 34.2934 151.505 35.2682 153.149 36.2517C154.36 34.3623 155.375 32.3839 156.196 30.3246C158.093 31.1849 160.018 32.0634 161.966 32.9522C162.799 30.8695 163.814 28.891 165.014 27.0251C166.658 28.0086 168.3 28.9834 169.944 29.9669C171.099 27.936 172.257 25.9135 173.411 23.8826C175.175 24.7832 176.956 25.7059 178.762 26.6674C179.637 24.7411 180.514 22.8236 181.389 20.8974C182.514 21.3669 183.301 22.1923 183.749 23.3652C194.248 74.4173 205.179 125.375 216.541 176.238C214.758 176.944 213.045 177.91 211.397 179.12C210.177 178.179 208.744 177.758 207.095 177.858C198.636 181.799 190.063 185.323 181.377 188.439C181.443 189.553 180.954 190.378 179.906 190.904C173.024 193.383 166.166 195.95 159.332 198.603C158.114 198.542 156.923 198.346 155.764 198.023C154.399 201.109 152.335 201.566 149.571 199.383C124.126 154.345 98.7965 109.254 73.5824 64.1108C75.1067 63.349 76.5737 63.4319 77.9898 64.3763C78.9272 62.5704 79.6652 60.705 80.1975 58.7634C82.3279 59.3831 84.3919 60.2095 86.3874 61.2339C87.3248 59.4279 88.0628 57.5626 88.5952 55.621C90.7995 56.3949 93.0007 57.1604 95.205 57.9344C95.4224 55.8521 96.1604 53.9868 97.4127 52.3214C99.4082 53.3458 101.472 54.1722 103.603 54.7919C103.936 52.8579 104.53 51.0366 105.39 49.3362C107.521 49.9559 109.585 50.7823 111.58 51.8067C112.311 49.8962 113.049 48.0308 113.788 46.1938C115.918 46.8135 117.983 47.6399 119.978 48.6642C120.47 47.3216 121.136 46.1152 121.974 45.0451Z" fill="#FF9B50"/>
<path opacity="0.545" fill-rule="evenodd" clip-rule="evenodd" d="M135.514 42.8508C134.179 42.594 132.884 42.121 131.632 41.4314C131.009 43.3206 130.027 44.9614 128.69 46.3616C126.467 45.6902 124.23 45.2543 121.974 45.0451C121.588 44.3473 121.66 43.6884 122.186 43.0514C124.316 43.6711 126.38 44.4975 128.376 45.5219C129.313 43.7159 130.051 41.8506 130.583 39.909C132.702 40.1693 134.347 41.1526 135.514 42.8508Z" fill="#FF9B50"/>
<path opacity="0.997" fill-rule="evenodd" clip-rule="evenodd" d="M65.499 68.0931C67.4581 67.36 69.4182 66.6265 71.3773 65.8934C96.7722 111.592 122.17 157.289 147.575 203.002C127.861 213.529 108.299 224.363 88.8889 235.494C81.9214 237.546 77.0622 235.219 74.3067 228.505C51.5866 188.852 29.3293 148.987 7.54178 108.928C7.58514 104.249 9.52818 100.487 13.374 97.6505C30.9506 87.9045 48.3256 78.052 65.499 68.0931ZM51.6348 84.7693C52.7542 84.3504 53.8745 83.9312 54.9939 83.5124C55.3427 85.2965 55.6907 87.081 56.0395 88.8652C47.9296 93.5849 39.7771 98.2343 31.578 102.805C32.4862 104.38 33.3951 105.955 34.3032 107.53C42.61 103.244 50.8693 98.88 59.079 94.4293C59.3932 95.2691 59.7075 96.1088 60.0217 96.9486C52.5742 100.98 45.2081 105.172 37.9224 109.526C37.0027 111.546 37.1245 113.578 38.2854 115.613C45.4658 111.758 52.6026 107.805 59.7021 103.77C61.513 103.188 63.1737 103.361 64.6865 104.298C56.8713 108.946 48.9953 113.482 41.0648 117.924C40.9846 122.425 42.9596 123.438 46.9919 120.971C53.9099 117.454 60.63 113.666 67.149 109.599C67.8531 110.245 68.3068 111.033 68.5116 111.961C60.872 116.907 52.9992 121.452 44.8898 125.587C45.5183 127.267 46.1468 128.947 46.7753 130.626C55.2252 126.602 63.4854 122.238 71.551 117.526C71.8653 118.365 72.1795 119.205 72.4938 120.045C65.0115 124.625 57.3114 128.78 49.3975 132.517C50.1297 134.474 50.865 136.439 51.5972 138.395C59.1927 134.375 66.7494 130.265 74.2736 126.08C76.212 125.527 76.8927 126.067 76.3188 127.708C69.4029 132.134 62.3698 136.365 55.2164 140.392C54.2967 142.411 54.4185 144.443 55.5794 146.479C63.7834 142.021 72.0405 137.648 80.3551 133.378C80.6694 134.218 80.9836 135.058 81.2979 135.897C73.5198 139.928 65.874 144.225 58.3588 148.789C58.3604 150.426 58.9354 151.963 60.0871 153.408C68.5634 149.69 76.6825 145.379 84.443 140.465C85.4196 141.325 85.647 142.36 85.1229 143.561C77.5073 147.923 69.8606 152.221 62.1838 156.453C62.883 160.03 64.9113 161.186 68.2681 159.92C75.302 155.766 82.4388 151.812 89.6848 148.077C89.999 148.916 90.3133 149.756 90.6275 150.596C83.1224 154.524 75.7562 158.717 68.5282 163.174C67.6085 165.193 67.7303 167.225 68.8912 169.261C77.1051 164.808 85.3613 160.436 93.667 156.16C93.9812 157 94.2954 157.84 94.6097 158.679C86.9339 162.308 79.5669 166.501 72.5103 171.257C71.3921 173.035 71.5473 174.729 72.979 176.347C73.9112 176.554 74.8547 176.516 75.8126 176.244C82.7469 172.108 89.643 167.938 96.4951 163.718C98.1057 163.9 99.0837 164.808 99.4316 166.449C91.4211 170.078 83.7744 174.375 76.4925 179.34C76.1326 181.131 76.5674 182.721 77.801 184.116C78.4355 184.377 79.1024 184.453 79.7947 184.328C86.8278 180.097 93.8641 175.875 100.897 171.644C102.039 171.705 102.999 172.14 103.782 172.958C95.8892 178.066 87.787 182.849 79.4778 187.318C80.177 190.896 82.2053 192.051 85.5621 190.786C91.7853 187.318 97.943 183.731 104.04 180.042C105.474 179.764 106.715 180.094 107.764 181.041C100.143 186.009 92.2164 190.411 83.9855 194.248C84.7177 196.204 85.453 198.169 86.1852 200.126C93.3622 196.272 100.499 192.319 107.602 188.282C108.825 188.141 110.052 188.007 111.275 187.865C104.24 193.753 96.4707 198.575 87.9677 202.331C88.5843 205.652 90.4724 206.86 93.6321 205.956C100.97 202.281 108.107 198.328 115.049 194.112C115.753 194.758 116.207 195.546 116.411 196.474C109.192 200.918 101.826 205.111 94.312 209.052C93.3924 211.071 93.5141 213.103 94.6751 215.139C102.793 211.115 110.769 206.847 118.611 202.353C120.509 203.107 122.204 204.225 123.698 205.714C110.293 213.335 96.8027 220.776 83.2272 228.039C60.9697 187.255 38.1718 146.798 14.8369 106.677C27.0608 99.0485 39.3272 91.7491 51.6348 84.7693Z" fill="#FF9B50"/>
<path opacity="0.998" fill-rule="evenodd" clip-rule="evenodd" d="M187.265 22.5281C200.572 19.808 213.85 16.9166 227.097 13.8457C236.688 11.9415 243.159 15.5898 246.504 24.7734C255.563 65.6418 264.193 106.613 272.391 147.68C273.93 156.792 270.426 163.206 261.883 166.93C247.9 170.199 233.871 173.219 219.795 175.978C208.876 124.834 198.035 73.6895 187.265 22.5281ZM205.615 43.4246C217.717 39.442 230.102 36.7222 242.771 35.2651C249.876 71.1686 257.231 107.026 264.838 142.847C254.493 145.072 244.117 147.193 233.718 149.227C225.534 149.743 221.043 145.842 220.241 137.516C214.813 110.233 209.098 83.0197 203.088 55.8586C202.091 51.2533 202.934 47.1087 205.615 43.4246Z" fill="#FF9B50"/>
<path opacity="0.942" fill-rule="evenodd" clip-rule="evenodd" d="M230.467 71.4618C231.844 70.7936 233.297 70.4125 234.823 70.3105C235.591 70.8753 236.185 71.6101 236.606 72.5156C239.008 86.1014 241.762 99.431 244.868 112.505C243.368 113.545 241.739 114.307 239.987 114.81C238.546 109.231 237.397 103.602 236.535 97.9118C234.975 96.581 234.68 94.9393 235.647 92.9788C233.396 91.1596 233.328 89.2705 235.441 87.3117C232.608 86.3422 231.926 84.5199 233.398 81.8533C231.545 80.3927 231.197 78.6082 232.353 76.5004C230.607 75.2102 229.979 73.5307 230.467 71.4618Z" fill="#FF9B50"/>
<path opacity="0.989" fill-rule="evenodd" clip-rule="evenodd" d="M247.571 73.6777C249.056 77.6887 249.96 81.8116 250.291 86.0629C250.781 86.5209 251.269 86.9702 251.759 87.4282C251.322 91.469 252.069 95.172 254.008 98.5537C252.97 100.656 253.319 102.44 255.054 103.907C254.042 106.152 254.445 108.079 256.256 109.679C256.044 112.238 254.625 113.564 252.003 113.664C251.236 113.099 250.641 112.364 250.221 111.459C248.938 104.893 247.755 98.3185 246.667 91.7273C244.998 90.15 244.598 88.2314 245.464 85.9546C244.974 85.4966 244.486 85.0473 243.996 84.5893C244.141 79.9493 243.409 75.4362 241.801 71.0501C243.481 70.4216 245.16 69.7931 246.84 69.1646C247.679 70.6793 247.924 72.1864 247.571 73.6777Z" fill="#FF9B50"/>
<path opacity="0.968" fill-rule="evenodd" clip-rule="evenodd" d="M247.571 73.6777C246.795 73.8438 246.338 74.3305 246.206 75.1459C247.379 76.2101 248.184 77.5076 248.617 79.0305C247.498 79.4494 246.377 79.8686 245.258 80.2875C244.681 77.3347 243.914 74.4337 242.955 71.5756C244.075 71.1567 245.195 70.7375 246.314 70.3186C246.732 71.4355 247.153 72.5608 247.571 73.6777Z" fill="#FF9B50"/>
<path opacity="0.855" fill-rule="evenodd" clip-rule="evenodd" d="M208.639 71.9713C211.035 70.5192 213.083 70.8733 214.777 73.025C214.238 76.9317 214.936 80.5 216.868 83.7307C217.638 88.0571 218.459 92.3836 219.326 96.6929C218.363 98.0583 218.642 99.2273 220.163 100.209C220.695 104.73 221.706 109.138 223.197 113.434C220.549 115.009 218.225 114.768 216.219 112.695C216.097 109.849 215.994 107.015 215.91 104.194C213.991 102.739 213.642 100.954 214.864 98.8411C214.096 98.2763 213.502 97.5415 213.081 96.6361C212.312 92.3097 211.491 87.9831 210.624 83.6739C211.587 82.3085 211.308 81.1394 209.787 80.1577C209.299 77.4108 208.917 74.6819 208.639 71.9713Z" fill="#FF9B50"/>
<path opacity="0.675" fill-rule="evenodd" clip-rule="evenodd" d="M220.498 70.4055C222.883 68.8718 224.65 69.3305 225.797 71.7735C226.386 73.1903 226.243 74.5168 225.374 75.761C227.293 77.2163 227.642 79.0005 226.42 81.1138C228.339 82.5692 228.687 84.3533 227.466 86.4667C228.162 86.8956 228.705 87.4964 229.091 88.2518C230.009 91.2782 230.166 94.2545 229.557 97.1723C230.494 97.4825 231.314 97.9702 232.022 98.6433C232.173 103.269 232.624 107.886 233.377 112.497C228.873 115.092 227.125 113.831 228.132 108.715C226.319 107.134 225.918 105.207 226.93 102.942C226.315 102.636 225.825 102.178 225.461 101.577C225.796 97.3927 224.995 93.5469 223.056 90.0316C222.877 88.8921 223.123 87.8428 223.793 86.8839C221.874 85.4285 221.525 83.6444 222.747 81.531C220.828 80.0757 220.48 78.2915 221.701 76.1782C219.745 74.5551 219.343 72.6282 220.498 70.4055Z" fill="#FF9B50"/>
<path opacity="0.137" fill-rule="evenodd" clip-rule="evenodd" d="M181.377 188.439C190.063 185.323 198.636 181.799 207.095 177.858C208.744 177.758 210.177 178.179 211.397 179.12C202.216 181.57 193.398 184.869 184.944 189.019C183.699 189.025 182.513 188.837 181.377 188.439Z" fill="#FF9B50"/>
</svg>
