<svg width="189" height="252" viewBox="0 0 189 252" fill="none" xmlns="http://www.w3.org/2000/svg">
<path opacity="0.985" fill-rule="evenodd" clip-rule="evenodd" d="M55.7924 61.0849C61.8569 78.9245 68.4418 96.7016 75.54 114.419C72.7101 115.51 69.8801 116.601 67.0502 117.692C66.6444 116.028 65.8655 114.703 64.7063 113.72C59.9834 100.499 55.4119 87.2274 50.9845 73.9088C49.7814 69.5862 47.4536 66.0142 44.0082 63.1898C32.1319 57.3828 20.1751 53.0533 8.12363 50.2068C7.4347 49.1153 6.74141 48.0336 6.05248 46.9421C4.12331 46.3856 2.51662 45.3797 1.2324 43.9245C0.787923 42.8769 0.989203 41.9867 1.82916 41.2566C7.0224 42.4807 12.1641 43.8872 17.2656 45.4636C18.0686 45.5441 18.8224 45.3917 19.5244 44.9992C20.2272 46.4429 21.3874 47.3446 23.0105 47.7184C32.3876 50.0357 41.6675 52.6911 50.8616 55.6721C52.7949 57.251 54.4337 59.0571 55.7924 61.0849Z" fill="#FF9B50"/>
<path opacity="0.938" fill-rule="evenodd" clip-rule="evenodd" d="M79.0775 113.055C80.9266 115.049 81.8376 117.412 81.8048 120.13C75.7688 121.653 69.7827 123.684 63.845 126.241C63.1168 124.352 62.3913 122.47 61.6631 120.581C67.7809 118.491 73.5815 115.979 79.0775 113.055Z" fill="#FF9B50"/>
<path opacity="0.737" fill-rule="evenodd" clip-rule="evenodd" d="M80.4924 112.51C81.9074 111.964 83.3224 111.419 84.7373 110.873C85.6455 113.229 86.5565 115.592 87.4647 117.948C86.1364 118.655 84.7517 118.921 83.3008 118.741C82.1343 116.769 81.2029 114.69 80.4924 112.51Z" fill="#FF9B50"/>
<path opacity="0.946" fill-rule="evenodd" clip-rule="evenodd" d="M50.7783 123.965C53.7006 122.586 56.7133 121.969 59.8136 122.107C60.3591 123.522 60.9045 124.937 61.45 126.352C59.843 127.727 58.2267 129.163 56.6083 130.656C51.6749 131.054 49.7331 128.821 50.7783 123.965Z" fill="#FF9B50"/>
<path opacity="0.799" fill-rule="evenodd" clip-rule="evenodd" d="M69.7262 128.85C69.6362 128.616 69.5435 128.376 69.4535 128.142C69.8196 127.131 69.6974 126.098 69.07 125.039C72.1334 123.858 75.2039 122.675 78.2673 121.494C78.7228 122.675 79.1755 123.85 79.631 125.031C76.327 126.305 73.0302 127.576 69.7262 128.85Z" fill="#FF9B50"/>
<path opacity="0.96" fill-rule="evenodd" clip-rule="evenodd" d="M54.5964 133.869C57.5384 132.605 60.551 131.988 63.6317 132.012C64.2672 133.66 64.9054 135.316 65.5408 136.964C63.6516 138.05 62.0353 139.485 60.6992 141.268C55.6855 141.332 53.6536 138.865 54.5964 133.869Z" fill="#FF9B50"/>
<path opacity="0.951" fill-rule="evenodd" clip-rule="evenodd" d="M83.1683 123.668C84.9275 125.427 85.7457 127.55 85.6229 130.035C79.5869 131.557 73.6008 133.589 67.6631 136.146C67.0276 134.497 66.3894 132.842 65.7539 131.193C71.8717 129.103 77.6723 126.591 83.1683 123.668Z" fill="#FF9B50"/>
<path opacity="0.762" fill-rule="evenodd" clip-rule="evenodd" d="M84.5833 123.122C85.9982 122.577 87.4132 122.031 88.8282 121.486C89.6464 123.608 90.4646 125.731 91.2828 127.853C89.8678 128.399 88.4528 128.944 87.0379 129.489C86.2197 127.367 85.4015 125.245 84.5833 123.122Z" fill="#FF9B50"/>
<path opacity="0.995" fill-rule="evenodd" clip-rule="evenodd" d="M83.7543 177.887C83.0261 175.998 82.3007 174.116 81.5725 172.227C87.6902 170.137 93.4908 167.625 98.9868 164.702C100.557 166.372 101.488 168.451 101.795 170.933C101.073 171.926 100.102 172.569 98.8842 172.867C84.3574 178.419 84.1239 178.509 98.1767 173.14C101.628 182.788 105.497 192.129 109.794 201.167C112.8 206.119 117.164 207.955 122.89 206.682C128.213 204.216 130.419 200.115 129.522 194.374C122.815 175.563 115.631 156.928 107.976 138.483C104.97 134.246 102.089 129.936 99.3378 125.56C117.065 122.936 134.794 120.441 152.518 118.062C153.005 118.987 153.25 119.982 153.255 121.028C151.439 124.011 149.781 127.088 148.281 130.259C148.283 132.94 148.37 135.612 148.532 138.288C152.649 155.839 157.689 173.13 163.651 190.156C166.177 208.279 159.05 221.054 142.26 228.47C126.007 233.866 112.658 229.804 102.211 216.279C96.8581 203.447 91.7387 190.526 86.857 177.504C85.7987 178.131 84.765 178.253 83.7543 177.887Z" fill="#FF9B50"/>
<path opacity="0.938" fill-rule="evenodd" clip-rule="evenodd" d="M86.9867 133.572C88.8358 135.566 89.7467 137.929 89.714 140.647C83.678 142.17 77.6919 144.201 71.7542 146.758C71.026 144.869 70.3005 142.987 69.5723 141.098C75.6901 139.008 81.4907 136.496 86.9867 133.572Z" fill="#FF9B50"/>
<path opacity="0.696" fill-rule="evenodd" clip-rule="evenodd" d="M88.4016 133.027C89.8166 132.481 91.2315 131.936 92.6465 131.39C93.5547 133.746 94.4657 136.109 95.3739 138.465C93.9589 139.011 92.5439 139.556 91.129 140.102C90.2207 137.746 89.3098 135.383 88.4016 133.027Z" fill="#FF9B50"/>
<path opacity="0.997" fill-rule="evenodd" clip-rule="evenodd" d="M59.1219 143.502C61.9574 142.53 64.8266 142.237 67.7224 142.624C68.2679 144.039 68.8134 145.454 69.3588 146.869C67.7565 147.308 66.8041 148.357 66.5033 150.001C59.8911 152.664 57.4315 150.5 59.1219 143.502Z" fill="#FF9B50"/>
<path opacity="0.192" fill-rule="evenodd" clip-rule="evenodd" d="M55.7924 61.085C62.6108 78.7721 69.4291 96.4592 76.2475 114.146C77.1884 113.784 78.1365 113.418 79.0774 113.055C73.5814 115.979 67.7808 118.491 61.663 120.581C62.3912 122.47 63.1167 124.352 63.8449 126.241C69.7827 123.684 75.7687 121.653 81.8047 120.13C80.8638 120.493 79.9158 120.858 78.9748 121.221C79.4303 122.403 79.883 123.577 80.3385 124.759C81.2794 124.396 82.2275 124.03 83.1684 123.668C77.6724 126.591 71.8718 129.103 65.754 131.193C66.3895 132.842 67.0277 134.497 67.6632 136.146C73.6009 133.589 79.587 131.557 85.623 130.035C84.6821 130.398 83.734 130.763 82.7931 131.126C83.2485 132.307 83.7013 133.482 84.1568 134.663C85.0977 134.301 86.0457 133.935 86.9867 133.572C81.4907 136.496 75.6901 139.008 69.5723 141.098C70.3005 142.987 71.026 144.869 71.7542 146.758C77.692 144.201 83.678 142.17 89.714 140.647C88.7731 141.01 87.825 141.375 86.8841 141.738C87.3396 142.92 87.7923 144.094 88.2478 145.276C87.1884 144.53 86.4994 143.439 86.1766 142.011C83.1132 143.192 80.0427 144.375 76.9793 145.556C77.7599 146.865 77.6584 147.993 76.6553 148.932C76.2925 147.991 75.9271 147.043 75.5643 146.102C74.1494 146.647 72.7344 147.193 71.3194 147.738C70.4112 145.382 69.5003 143.019 68.5921 140.663C70.2405 140.028 71.8961 139.39 73.5445 138.754C73.089 137.573 72.6363 136.398 72.1808 135.217C70.5324 135.852 68.8769 136.491 67.2284 137.126C66.4102 135.004 65.592 132.881 64.7738 130.759C66.4223 130.123 68.0778 129.485 69.7262 128.85C73.0302 127.576 76.327 126.305 79.631 125.031C79.1755 123.85 78.7228 122.675 78.2673 121.494C75.2039 122.675 72.1334 123.858 69.07 125.039C69.6974 126.098 69.8196 127.131 69.4535 128.142C69.0908 127.201 68.7253 126.253 68.3626 125.312C66.7141 125.948 65.0586 126.586 63.4102 127.221C62.502 124.865 61.591 122.502 60.6828 120.146C62.5718 119.418 64.4537 118.693 66.3427 117.965C65.7972 116.55 65.2518 115.135 64.7063 113.72C65.8655 114.703 66.6444 116.028 67.0502 117.692C69.8801 116.601 72.7101 115.51 75.54 114.419C68.4418 96.7016 61.8569 78.9245 55.7924 61.085Z" fill="#FF9B50"/>
<path opacity="0.788" fill-rule="evenodd" clip-rule="evenodd" d="M72.8882 134.944C75.9516 133.763 79.0221 132.58 82.0855 131.399C82.5409 132.58 82.9937 133.755 83.4491 134.936C80.3857 136.117 77.3153 137.301 74.2519 138.482C73.7964 137.3 73.3436 136.126 72.8882 134.944Z" fill="#FF9B50"/>
<path opacity="0.997" fill-rule="evenodd" clip-rule="evenodd" d="M63.2129 154.114C64.6054 153.447 66.064 153.015 67.5941 152.831C68.9205 153.848 70.3311 153.986 71.8134 153.236C72.2689 154.418 72.7216 155.592 73.1771 156.774C71.946 158.597 70.4268 160.263 68.6081 161.785C63.2492 161.755 61.4508 159.197 63.2129 154.114Z" fill="#FF9B50"/>
<path opacity="0.95" fill-rule="evenodd" clip-rule="evenodd" d="M88.2477 145.276C89.4292 144.82 90.6036 144.367 91.7851 143.912C92.6033 146.034 93.4215 148.157 94.2397 150.279C93.0582 150.735 91.8838 151.187 90.7023 151.643C86.9431 152.832 83.4957 154.429 80.3627 156.441C80.1293 156.531 79.8887 156.624 79.6552 156.714C78.1483 156.515 76.6433 156.827 75.1376 157.643C74.3194 155.521 73.5012 153.398 72.683 151.276C74.3469 150.87 75.6718 150.091 76.6552 148.932C77.6583 147.993 77.7598 146.864 76.9792 145.556C80.0426 144.375 83.1131 143.192 86.1765 142.011C86.4993 143.439 87.1883 144.53 88.2477 145.276Z" fill="#FF9B50"/>
<path opacity="0.728" fill-rule="evenodd" clip-rule="evenodd" d="M92.4927 143.639C93.9076 143.094 95.3226 142.548 96.7376 142.003C97.5558 144.125 98.374 146.248 99.1922 148.37C97.7772 148.916 96.3622 149.461 94.9473 150.007C94.1291 147.884 93.3109 145.762 92.4927 143.639Z" fill="#FF9B50"/>
<path opacity="0.944" fill-rule="evenodd" clip-rule="evenodd" d="M94.8958 154.089C96.655 155.849 97.4732 157.972 97.3504 160.457C91.4571 162.729 85.5567 165.003 79.6633 167.275C78.9351 165.386 78.2097 163.504 77.4815 161.615C83.5992 159.525 89.3999 157.013 94.8958 154.089Z" fill="#FF9B50"/>
<path opacity="0.695" fill-rule="evenodd" clip-rule="evenodd" d="M96.311 153.544C97.726 152.998 99.141 152.453 100.556 151.908C101.464 154.263 102.375 156.626 103.283 158.982C101.868 159.528 100.453 160.073 99.0384 160.619C98.1302 158.263 97.2192 155.9 96.311 153.544Z" fill="#FF9B50"/>
<path opacity="0.998" fill-rule="evenodd" clip-rule="evenodd" d="M67.0313 164.019C69.8668 163.047 72.736 162.754 75.6319 163.141C76.1773 164.556 76.7228 165.971 77.2683 167.386C75.6659 167.825 74.7135 168.875 74.4127 170.518C67.8005 173.181 65.341 171.017 67.0313 164.019Z" fill="#FF9B50"/>
<path opacity="0.946" fill-rule="evenodd" clip-rule="evenodd" d="M71.1223 174.631C73.8455 173.516 76.6247 172.989 79.4501 173.046C80.0855 174.694 80.7237 176.35 81.3592 177.998C79.19 180.297 76.4964 181.742 73.2785 182.332C70.2764 180.426 69.5553 177.86 71.1223 174.631Z" fill="#FF9B50"/>
<path opacity="0.537" fill-rule="evenodd" clip-rule="evenodd" d="M90.7025 151.643C91.158 152.824 91.6107 153.999 92.0662 155.18C93.0072 154.818 93.9552 154.452 94.8961 154.089C89.4001 157.013 83.5995 159.525 77.4818 161.615C78.21 163.504 78.9354 165.386 79.6636 167.275C85.557 165.003 91.4574 162.729 97.3507 160.457C96.8474 161.406 95.9992 162.01 94.7935 162.255C95.249 163.437 95.7017 164.611 96.1572 165.793C97.0982 165.43 98.0462 165.064 98.9871 164.702C93.4912 167.625 87.6905 170.137 81.5728 172.227C82.301 174.116 83.0264 175.998 83.7546 177.887C82.3004 176.181 81.2487 174.148 80.5926 171.793C82.0075 171.247 83.4225 170.702 84.8375 170.156C84.382 168.975 83.9293 167.8 83.4738 166.619C82.0588 167.164 80.6439 167.71 79.2289 168.255C78.3207 165.899 77.4098 163.536 76.5016 161.18C77.9165 160.635 79.3315 160.089 80.7465 159.544C80.3837 158.603 80.0183 157.655 79.6555 156.714C79.889 156.624 80.1295 156.531 80.363 156.441C83.496 154.429 86.9434 152.832 90.7025 151.643Z" fill="#FF9B50"/>
<path opacity="0.997" fill-rule="evenodd" clip-rule="evenodd" d="M84.1812 166.346C87.4851 165.073 90.782 163.802 94.0859 162.528C94.4487 163.469 94.8141 164.417 95.1769 165.358C91.8729 166.632 88.576 167.902 85.2721 169.176C84.9094 168.235 84.5439 167.287 84.1812 166.346Z" fill="#FF9B50"/>
<path opacity="0.868" fill-rule="evenodd" clip-rule="evenodd" d="M80.3628 156.441C83.6667 155.168 86.9636 153.897 90.2676 152.623C90.6303 153.564 90.9958 154.512 91.3585 155.453C88.0546 156.727 84.7577 157.998 81.4537 159.271C81.091 158.33 80.7255 157.382 80.3628 156.441Z" fill="#FF9B50"/>
<path opacity="0.674" fill-rule="evenodd" clip-rule="evenodd" d="M100.402 164.156C101.817 163.611 103.232 163.065 104.647 162.52C105.584 164.613 106.289 166.779 106.748 169.023C105.929 170.42 104.755 170.873 103.21 170.387C102.044 168.415 101.113 166.336 100.402 164.156Z" fill="#FF9B50"/>
<path opacity="0.255" fill-rule="evenodd" clip-rule="evenodd" d="M98.8843 172.867C102.52 182.298 106.158 191.736 109.794 201.167C105.497 192.129 101.628 182.788 98.1769 173.14C84.124 178.509 84.3575 178.419 98.8843 172.867Z" fill="#FF9B50"/>
</svg>
