<?xml version="1.0" encoding="UTF-8" standalone="no"?>
<svg
   viewBox="0 0 448 512"
   version="1.1"
   id="svg1"
   sodipodi:docname="square-x-twitter.svg"
   inkscape:version="1.3 (0e150ed6c4, 2023-07-21)"
   xmlns:inkscape="http://www.inkscape.org/namespaces/inkscape"
   xmlns:sodipodi="http://sodipodi.sourceforge.net/DTD/sodipodi-0.dtd"
   xmlns="http://www.w3.org/2000/svg"
   xmlns:svg="http://www.w3.org/2000/svg">
  <defs
     id="defs1" />
  <sodipodi:namedview
     id="namedview1"
     pagecolor="#ffffff"
     bordercolor="#000000"
     borderopacity="0.25"
     inkscape:showpageshadow="2"
     inkscape:pageopacity="0.0"
     inkscape:pagecheckerboard="0"
     inkscape:deskcolor="#d1d1d1"
     inkscape:zoom="1.0722656"
     inkscape:cx="223.82514"
     inkscape:cy="256"
     inkscape:window-width="1366"
     inkscape:window-height="745"
     inkscape:window-x="-8"
     inkscape:window-y="-8"
     inkscape:window-maximized="1"
     inkscape:current-layer="svg1" />
  <!--! Font Awesome Pro 6.4.2 by @fontawesome - https://fontawesome.com License - https://fontawesome.com/license (Commercial License) Copyright 2023 Fonticons, Inc. -->
  <path
     d="M64 32C28.7 32 0 60.7 0 96V416c0 35.3 28.7 64 64 64H384c35.3 0 64-28.7 64-64V96c0-35.3-28.7-64-64-64H64zm297.1 84L257.3 234.6 379.4 396H283.8L209 298.1 123.3 396H75.8l111-126.9L69.7 116h98l67.7 89.5L313.6 116h47.5zM323.3 367.6L153.4 142.9H125.1L296.9 367.6h26.3z"
     id="path1" />
  <path
     style="fill:#ff9b50;stroke-width:0.932605"
     d="M 48.660143,477.47453 C 25.881262,471.48241 8.430758,453.97916 2.1753466,430.84924 0.6515823,425.21499 0.51877687,413.73736 0.23313179,262.99454 0.03166557,156.67516 0.25556858,97.887416 0.88605433,91.563926 1.4243911,86.164648 2.8443556,79.068279 4.120895,75.397591 10.486111,57.094417 24.94033,42.70916 43.722608,35.98482 l 8.036955,-2.877352 H 223.82514 395.89071 l 6.52823,2.177654 c 9.95791,3.321706 17.04741,7.476364 24.11634,14.132891 11.01986,10.376955 17.11283,21.223939 19.7943,35.238727 1.97057,10.299223 1.97057,332.3873 0,342.68652 -4.37765,22.87996 -20.4221,41.11442 -43.44433,49.37436 l -6.06193,2.17491 -170.66667,0.18931 c -165.835612,0.18395 -170.86,0.13846 -177.496507,-1.60731 z M 166.01421,348.09472 c 23.21437,-26.54426 42.46616,-48.35717 42.78175,-48.47313 0.31559,-0.11595 17.15085,21.57851 37.41169,48.20992 l 36.83789,48.42074 48.26229,0.0524 c 26.54426,0.0288 48.2623,-0.18994 48.2623,-0.48609 0,-0.29616 -27.30078,-36.63311 -60.66837,-80.74878 -52.94694,-70.00173 -60.51377,-80.40574 -59.45356,-81.74577 1.1589,-1.46476 96.90895,-111.21364 100.8397,-115.58265 l 1.88787,-2.09836 -24.64344,0.038 -24.64344,0.038 -37.77049,43.38879 c -20.77377,23.86383 -38.24834,43.79375 -38.83238,44.28872 -0.74907,0.63481 -10.91426,-12.14991 -34.50637,-43.39855 l -33.4445,-44.29848 -49.77539,-0.0282 c -39.685309,-0.0225 -49.591646,0.20808 -48.868944,1.13752 15.152993,19.48777 115.897524,151.84247 115.897524,152.26218 0,0.32957 -24.76065,28.88909 -55.02368,63.4656 -30.26302,34.57651 -55.023676,63.08105 -55.023676,63.34344 0,0.26238 10.859689,0.47705 24.132639,0.47705 h 24.132647 z"
     id="path2" />
  <path
     style="fill:#ff9b50;stroke-width:0.932605"
     d="m 287.03941,353.70497 c -5.78716,-7.55772 -44.22643,-57.81346 -85.4206,-111.67942 l -74.8985,-97.93812 13.24247,-0.25954 c 7.28336,-0.14275 13.33828,-0.14275 13.45538,0 3.14414,3.83294 168.33047,222.79619 168.33047,223.13098 0,0.26807 -5.4421,0.4874 -12.09356,0.4874 h -12.09356 z"
     id="path3" />
</svg>
