<?xml version="1.0" encoding="UTF-8" standalone="no"?>
<svg
   viewBox="0 0 448 512"
   version="1.1"
   id="svg1"
   sodipodi:docname="square-whatsapp.svg"
   inkscape:version="1.3 (0e150ed6c4, 2023-07-21)"
   xmlns:inkscape="http://www.inkscape.org/namespaces/inkscape"
   xmlns:sodipodi="http://sodipodi.sourceforge.net/DTD/sodipodi-0.dtd"
   xmlns="http://www.w3.org/2000/svg"
   xmlns:svg="http://www.w3.org/2000/svg">
  <defs
     id="defs1" />
  <sodipodi:namedview
     id="namedview1"
     pagecolor="#ffffff"
     bordercolor="#000000"
     borderopacity="0.25"
     inkscape:showpageshadow="2"
     inkscape:pageopacity="0.0"
     inkscape:pagecheckerboard="0"
     inkscape:deskcolor="#d1d1d1"
     inkscape:zoom="1.0722656"
     inkscape:cx="223.82514"
     inkscape:cy="256"
     inkscape:window-width="1366"
     inkscape:window-height="745"
     inkscape:window-x="-8"
     inkscape:window-y="-8"
     inkscape:window-maximized="1"
     inkscape:current-layer="svg1" />
  <!--! Font Awesome Pro 6.4.2 by @fontawesome - https://fontawesome.com License - https://fontawesome.com/license (Commercial License) Copyright 2023 Fonticons, Inc. -->
  <path
     d="M224 122.8c-72.7 0-131.8 59.1-131.9 131.8 0 24.9 7 49.2 20.2 70.1l3.1 5-13.3 48.6 49.9-13.1 4.8 2.9c20.2 12 43.4 18.4 67.1 18.4h.1c72.6 0 133.3-59.1 133.3-131.8 0-35.2-15.2-68.3-40.1-93.2-25-25-58-38.7-93.2-38.7zm77.5 188.4c-3.3 9.3-19.1 17.7-26.7 18.8-12.6 1.9-22.4.9-47.5-9.9-39.7-17.2-65.7-57.2-67.7-59.8-2-2.6-16.2-21.5-16.2-41s10.2-29.1 13.9-33.1c3.6-4 7.9-5 10.6-5 2.6 0 5.3 0 7.6.1 2.4.1 5.7-.9 8.9 6.8 3.3 7.9 11.2 27.4 12.2 29.4s1.7 4.3.3 6.9c-7.6 15.2-15.7 14.6-11.6 21.6 15.3 26.3 30.6 35.4 53.9 47.1 4 2 6.3 1.7 8.6-1 2.3-2.6 9.9-11.6 12.5-15.5 2.6-4 5.3-3.3 8.9-2 3.6 1.3 23.1 10.9 27.1 12.9s6.6 3 7.6 4.6c.9 1.9.9 9.9-2.4 19.1zM400 32H48C21.5 32 0 53.5 0 80v352c0 26.5 21.5 48 48 48h352c26.5 0 48-21.5 48-48V80c0-26.5-21.5-48-48-48zM223.9 413.2c-26.6 0-52.7-6.7-75.8-19.3L64 416l22.5-82.2c-13.9-24-21.2-51.3-21.2-79.3C65.4 167.1 136.5 96 223.9 96c42.4 0 82.2 16.5 112.2 46.5 29.9 30 47.9 69.8 47.9 112.2 0 87.4-72.7 158.5-160.1 158.5z"
     id="path1" />
  <path
     style="fill:#ff9b50;stroke-width:0.932605"
     d="M 36.684354,478.03209 C 21.000215,474.22834 7.5747108,461.38359 2.5324519,445.35749 L 0.46630237,438.79053 V 256 73.209472 L 2.5324519,66.642512 C 7.7088399,50.190105 21.884712,37.029299 38.049547,33.668625 c 3.50059,-0.727773 57.915219,-1.027459 186.558153,-1.027459 198.05702,0 186.18588,-0.314948 197.12815,5.229919 5.78671,2.932343 14.55397,11.07557 18.43372,17.121632 1.54523,2.408039 3.75561,6.862408 4.91196,9.898597 l 2.10244,5.520344 V 256 441.58834 l -2.10244,5.52034 c -2.91231,7.6468 -6.78967,13.38806 -13.11848,19.42472 -6.13159,5.84854 -12.21354,9.23152 -20.41926,11.35783 -5.06349,1.31208 -24.96987,1.4592 -187.85327,1.38829 C 81.150027,479.21747 40.452705,478.946 36.684354,478.03209 Z m 77.271336,-74.63102 34.21799,-8.98563 7.6081,3.82529 c 15.80399,7.94608 37.55732,13.60084 56.8521,14.77865 36.95521,2.25585 71.18663,-6.85167 100.86134,-26.83488 24.32108,-16.37804 41.64803,-36.15003 54.42438,-62.10435 10.86336,-22.06822 15.28708,-39.78898 16.06392,-64.34973 1.07536,-33.99855 -7.39268,-63.18165 -26.72045,-92.08573 C 329.0886,125.51064 284.3293,99.22847 235.63262,96.224664 198.25216,93.918887 165.15826,102.64377 135.22769,122.69544 100.71862,145.81443 77.077645,181.0948 67.877016,223.20555 c -1.812066,8.29372 -2.071105,12.22046 -2.071105,31.39554 0,19.28722 0.253941,23.09087 2.116943,31.70856 2.847182,13.17023 7.796313,27.43828 13.372087,38.55095 l 4.602997,9.1739 -10.907697,39.78784 c -5.999232,21.88332 -11.101534,40.50382 -11.338449,41.37888 -0.38893,1.43656 0.371061,1.37716 7.82758,-0.61175 4.542083,-1.21153 23.65643,-6.2463 42.476318,-11.1884 z"
     id="path2" />
  <path
     style="fill:#ff9b50;stroke-width:0.932605"
     d="m 207.51902,385.09457 c -16.2931,-2.2537 -34.39333,-8.38028 -48.24576,-16.33026 l -7.19669,-4.13023 -24.51187,6.44455 c -13.48153,3.5445 -24.55947,6.38052 -24.61764,6.30226 -0.0582,-0.0783 2.75348,-10.42424 6.24811,-22.99109 3.49463,-12.56685 6.37501,-23.42343 6.40084,-24.12573 0.0258,-0.7023 -1.38605,-3.64 -3.13752,-6.52823 C 99.068219,301.65494 92.928181,279.92 92.928181,254.60109 c 0,-15.85078 1.723809,-26.80092 6.43635,-40.8856 21.836909,-65.26539 90.113849,-102.98363 156.375699,-86.38666 37.4426,9.37845 69.42786,35.42896 87.38972,71.17486 14.83362,29.52039 17.48556,63.39201 7.4386,95.00899 -6.05607,19.05803 -16.05195,35.66183 -30.63859,50.89266 -19.22375,20.07274 -42.85599,33.24636 -69.8063,38.91302 -10.56444,2.22131 -32.71161,3.14463 -42.60464,1.77621 z m 77.33651,-58.21962 c 13.64066,-6.73997 18.51476,-13.74218 19.79753,-28.44143 0.45134,-5.17189 0.27321,-6.28068 -1.21321,-7.55174 -3.38706,-2.89637 -35.42294,-17.62859 -38.33413,-17.62859 -2.50669,0 -3.69149,1.0181 -8.95375,7.69399 -8.26635,10.48696 -10.62003,12.82331 -12.91842,12.82331 -2.34509,0 -14.97676,-6.70654 -25.77302,-13.68369 -4.26994,-2.75946 -10.788,-8.04885 -14.48457,-11.75419 -6.68474,-6.70057 -18.32022,-22.87767 -18.32022,-25.47103 0,-0.74724 1.62744,-3.13286 3.61655,-5.30136 5.35211,-5.83485 9.44052,-12.77458 9.43552,-16.01603 -0.006,-3.6619 -13.25244,-35.5225 -15.97364,-38.41909 -1.86344,-1.98354 -2.86212,-2.19978 -10.15955,-2.19978 -9.63705,0 -11.92381,1.1862 -18.84227,9.77398 -12.69301,15.75563 -12.87343,37.62162 -0.48879,59.23877 5.11566,8.92929 15.98839,23.43919 24.38299,32.53963 19.50837,21.1487 37.30234,33.42112 61.65396,42.52246 13.34679,4.98832 19.05228,6.08517 29.91591,5.75121 8.73641,-0.26858 9.91016,-0.5417 16.65911,-3.87642 z"
     id="path3" />
</svg>
