<?xml version="1.0" encoding="UTF-8" standalone="no"?>
<svg
   viewBox="0 0 448 512"
   version="1.1"
   id="svg1"
   sodipodi:docname="square-facebook.svg"
   inkscape:version="1.3 (0e150ed6c4, 2023-07-21)"
   xmlns:inkscape="http://www.inkscape.org/namespaces/inkscape"
   xmlns:sodipodi="http://sodipodi.sourceforge.net/DTD/sodipodi-0.dtd"
   xmlns="http://www.w3.org/2000/svg"
   xmlns:svg="http://www.w3.org/2000/svg">
  <defs
     id="defs1" />
  <sodipodi:namedview
     id="namedview1"
     pagecolor="#ffffff"
     bordercolor="#000000"
     borderopacity="0.25"
     inkscape:showpageshadow="2"
     inkscape:pageopacity="0.0"
     inkscape:pagecheckerboard="0"
     inkscape:deskcolor="#d1d1d1"
     inkscape:zoom="1.0722656"
     inkscape:cx="223.82514"
     inkscape:cy="256"
     inkscape:window-width="1366"
     inkscape:window-height="745"
     inkscape:window-x="-8"
     inkscape:window-y="-8"
     inkscape:window-maximized="1"
     inkscape:current-layer="svg1" />
  <!--! Font Awesome Pro 6.4.2 by @fontawesome - https://fontawesome.com License - https://fontawesome.com/license (Commercial License) Copyright 2023 Fonticons, Inc. -->
  <path
     d="M400 32H48A48 48 0 0 0 0 80v352a48 48 0 0 0 48 48h137.25V327.69h-63V256h63v-54.64c0-62.15 37-96.48 93.67-96.48 27.14 0 55.52 4.84 55.52 4.84v61h-31.27c-30.81 0-40.42 19.12-40.42 38.73V256h68.78l-11 71.69h-57.78V480H400a48 48 0 0 0 48-48V80a48 48 0 0 0-48-48z"
     id="path1" />
  <path
     style="fill:#ffffff;stroke-width:0.932605"
     d="M 36.684354,478.03209 C 21.000215,474.22834 7.5747108,461.38359 2.5324519,445.35749 L 0.46630237,438.79053 V 256 73.209472 L 2.5324519,66.642512 C 7.7088399,50.190105 21.884712,37.029299 38.049547,33.668625 c 3.50059,-0.727773 57.915219,-1.027459 186.558153,-1.027459 198.05702,0 186.18588,-0.314948 197.12815,5.229919 5.78671,2.932343 14.55397,11.07557 18.43372,17.121632 1.54523,2.408039 3.75561,6.862408 4.91196,9.898597 l 2.10244,5.520344 V 256 441.58834 l -2.10244,5.52034 c -1.15635,3.0362 -3.36673,7.49056 -4.91196,9.8986 -3.84278,5.98845 -12.62964,14.18048 -18.28282,17.04517 -10.57448,5.3585 -9.71572,5.30638 -87.44941,5.30638 h -71.4428 v -75.54098 -75.54098 h 28.89298 28.89298 l 0.4674,-2.09836 c 0.25707,-1.1541 2.5808,-16.15738 5.16383,-33.34062 2.58304,-17.18325 4.94544,-32.6062 5.24978,-34.27323 l 0.55336,-3.03096 H 297.6047 262.99454 l 0.0162,-24.94718 c 0.0172,-26.5463 0.82776,-33.78176 4.61613,-41.20758 2.929,-5.74133 8.76113,-11.06616 15.74392,-14.3745 l 6.20299,-2.93887 22.61567,-0.30599 22.61566,-0.306 v -31.06562 -31.06562 l -3.03097,-0.53858 c -13.11659,-2.33071 -32.27288,-3.77402 -50.1275,-3.77681 -17.33646,-0.003 -21.23336,0.2727 -28.78451,2.03431 -17.45148,4.07127 -30.61687,11.14025 -42.08197,22.59535 -11.20792,11.19814 -18.05361,23.59302 -22.38593,40.53219 -2.93172,11.46296 -3.73848,23.33586 -3.73848,55.01849 v 30.34641 h -31.24226 -31.24226 v 36.37158 36.37159 h 31.24226 31.24226 v 75.54098 75.54098 l -71.57742,-0.0793 c -53.92189,-0.0598 -72.765477,-0.36744 -76.393966,-1.24743 z"
     id="path2" />
  <path
     style="fill:#ff9b50;stroke-width:0.932605;fill-opacity:1"
     d="m 97.457195,478.44893 -60.619308,-0.489 -5.338944,-2.15657 C 18.028725,470.36233 7.8966116,459.20607 2.6953365,444.0883 0.99015083,439.13209 0.93260474,432.98838 0.93260474,255.89642 V 72.828016 L 3.1042134,66.845302 C 8.8880104,50.91112 19.790813,39.938652 34.366547,35.383213 c 6.184187,-1.93278 6.710437,-1.938583 185.728173,-2.048087 130.16595,-0.07962 181.78048,0.184172 187.72457,0.959428 10.39293,1.355494 15.71973,4.141992 24.66548,12.902735 5.40458,5.292819 7.52119,8.234201 10.50093,14.592795 l 3.73197,7.963811 V 256 442.24611 l -3.73197,7.96381 c -6.59418,14.0716 -20.00888,25.15211 -33.01293,27.26857 -2.97397,0.48403 -37.2607,1.17298 -76.19273,1.53101 l -70.7855,0.65097 v -75.69181 -75.69179 h 29.25594 29.25594 l 1.58626,-10.49181 c 0.87243,-5.77049 3.36217,-22.03278 5.53275,-36.13843 L 332.57192,256 l -34.71628,-0.2443 -34.7163,-0.24429 0.43303,-24.93603 c 0.43815,-25.23169 1.17101,-32.92268 3.71802,-39.01853 2.24634,-5.37625 9.4845,-12.36818 16.4187,-15.86019 6.20897,-3.12679 6.43411,-3.16478 18.75278,-3.16478 6.8576,0 16.94572,-0.27396 22.41803,-0.60878 l 9.94966,-0.60878 -0.24538,-31.33005 -0.24538,-31.33006 -6.99454,-1.06378 c -20.50811,-3.119 -57.07745,-4.04286 -70.05634,-1.76985 -40.12706,7.02751 -66.91697,36.1318 -71.7077,77.90255 -0.50005,4.35993 -0.91262,22.30091 -0.91683,39.86886 l -0.008,31.94171 h -31.24226 -31.24226 v 36.37158 36.37159 h 31.24226 31.24226 v 75.54098 75.54098 l -13.28962,-0.21045 c -7.30929,-0.11574 -40.56831,-0.4305 -73.908925,-0.69945 z"
     id="path3" />
</svg>
