<?xml version="1.0" encoding="UTF-8" standalone="no"?>
<svg
   viewBox="0 0 448 512"
   version="1.1"
   id="svg1"
   sodipodi:docname="square-instagram.svg"
   inkscape:version="1.3 (0e150ed6c4, 2023-07-21)"
   xmlns:inkscape="http://www.inkscape.org/namespaces/inkscape"
   xmlns:sodipodi="http://sodipodi.sourceforge.net/DTD/sodipodi-0.dtd"
   xmlns="http://www.w3.org/2000/svg"
   xmlns:svg="http://www.w3.org/2000/svg">
  <defs
     id="defs1" />
  <sodipodi:namedview
     id="namedview1"
     pagecolor="#ffffff"
     bordercolor="#000000"
     borderopacity="0.25"
     inkscape:showpageshadow="2"
     inkscape:pageopacity="0.0"
     inkscape:pagecheckerboard="0"
     inkscape:deskcolor="#d1d1d1"
     inkscape:zoom="1.0722656"
     inkscape:cx="223.82514"
     inkscape:cy="256"
     inkscape:window-width="1366"
     inkscape:window-height="745"
     inkscape:window-x="-8"
     inkscape:window-y="-8"
     inkscape:window-maximized="1"
     inkscape:current-layer="svg1" />
  <!--! Font Awesome Pro 6.4.2 by @fontawesome - https://fontawesome.com License - https://fontawesome.com/license (Commercial License) Copyright 2023 Fonticons, Inc. -->
  <path
     d="M224,202.66A53.34,53.34,0,1,0,277.36,256,53.38,53.38,0,0,0,224,202.66Zm124.71-41a54,54,0,0,0-30.41-30.41c-21-8.29-71-6.43-94.3-6.43s-73.25-1.93-94.31,6.43a54,54,0,0,0-30.41,30.41c-8.28,21-6.43,71.05-6.43,94.33S91,329.26,99.32,350.33a54,54,0,0,0,30.41,30.41c21,8.29,71,6.43,94.31,6.43s73.24,1.93,94.3-6.43a54,54,0,0,0,30.41-30.41c8.35-21,6.43-71.05,6.43-94.33S357.1,182.74,348.75,161.67ZM224,338a82,82,0,1,1,82-82A81.9,81.9,0,0,1,224,338Zm85.38-148.3a19.14,19.14,0,1,1,19.13-19.14A19.1,19.1,0,0,1,309.42,189.74ZM400,32H48A48,48,0,0,0,0,80V432a48,48,0,0,0,48,48H400a48,48,0,0,0,48-48V80A48,48,0,0,0,400,32ZM382.88,322c-1.29,25.63-7.14,48.34-25.85,67s-41.4,24.63-67,25.85c-26.41,1.49-105.59,1.49-132,0-25.63-1.29-48.26-7.15-67-25.85s-24.63-41.42-25.85-67c-1.49-26.42-1.49-105.61,0-132,1.29-25.63,7.07-48.34,25.85-67s41.47-24.56,67-25.78c26.41-1.49,105.59-1.49,132,0,25.63,1.29,48.33,7.15,67,25.85s24.63,41.42,25.85,67.05C384.37,216.44,384.37,295.56,382.88,322Z"
     id="path1" />
  <path
     style="fill:#ff9b50;stroke-width:0.932605"
     d="M 36.684354,478.03209 C 21.000215,474.22834 7.5747108,461.38359 2.5324519,445.35749 L 0.46630237,438.79053 V 256 73.209472 L 2.5324519,66.642512 C 7.7088399,50.190105 21.884712,37.029299 38.049547,33.668625 c 3.50059,-0.727773 57.915219,-1.027459 186.558153,-1.027459 198.05702,0 186.18588,-0.314948 197.12815,5.229919 5.78671,2.932343 14.55397,11.07557 18.43372,17.121632 1.54523,2.408039 3.75561,6.862408 4.91196,9.898597 l 2.10244,5.520344 V 256 441.58834 l -2.10244,5.52034 c -2.91231,7.6468 -6.78967,13.38806 -13.11848,19.42472 -6.13159,5.84854 -12.21354,9.23152 -20.41926,11.35783 -5.06349,1.31208 -24.96987,1.4592 -187.85327,1.38829 C 81.150027,479.21747 40.452705,478.946 36.684354,478.03209 Z M 304.96175,414.15157 c 23.38193,-3.95418 40.28075,-12.23848 53.67824,-26.31467 16.25079,-17.07401 22.66956,-34.62037 24.665,-67.42439 1.18025,-19.40286 1.18025,-109.42216 0,-128.82502 -1.99544,-32.80402 -8.41421,-50.35038 -24.665,-67.4244 C 344.66763,109.48293 327.40688,101.34105 302.63024,97.74336 290.70647,96.011969 157.02383,95.993285 145.28108,97.721367 123.4832,100.92918 109.59104,106.64383 95.584795,118.16431 83.024268,128.49566 72.93985,145.02338 68.574646,162.43221 64.568988,178.40716 63.963785,190.68848 63.963785,256 c 0,80.02594 1.135168,91.05949 11.513936,111.91257 14.24061,28.61231 39.642169,43.96363 77.906629,47.08253 13.8764,1.13105 144.18949,0.40586 151.5774,-0.84353 z"
     id="path2" />
  <path
     style="fill:#ff9b50;stroke-width:0.932605"
     d="m 165.07104,386.11496 c -28.89292,-1.98242 -41.92738,-6.51576 -53.7368,-18.68948 -9.05114,-9.33034 -13.027575,-18.31028 -15.890134,-35.8845 -1.24226,-7.62665 -1.595905,-19.52239 -1.940763,-65.28233 -0.646474,-85.782 1.112535,-100.55023 13.996117,-117.50819 7.22587,-9.51103 17.1164,-15.84966 29.71893,-19.04626 15.2377,-3.865 23.56727,-4.26964 87.53935,-4.25251 65.42333,0.0175 75.19352,0.5731 89.64773,5.09794 15.64034,4.89615 28.15047,16.76556 33.97208,32.23215 5.29828,14.07623 6.76634,38.2667 6.4298,105.9491 -0.31317,62.98378 -1.99915,76.03878 -11.75346,91.01027 -6.72296,10.31881 -16.89529,18.02988 -28.6316,21.70403 -13.53779,4.23811 -23.26372,4.8419 -82.67001,5.1322 -30.77596,0.1504 -60.78252,-0.0577 -66.68124,-0.46242 z m 79.7377,-50.33624 c 15.14941,-3.93084 27.8972,-11.59247 39.35153,-23.6509 24.59516,-25.89231 29.14702,-65.58227 11.19661,-97.62873 -4.965,-8.8639 -19.95298,-24.12917 -28.63193,-29.16162 -32.18236,-18.66085 -71.43928,-14.6561 -98.72991,10.07181 -10.4695,9.48637 -19.30336,24.04845 -23.46129,38.67451 -2.54975,8.96909 -3.44173,25.44901 -1.89604,35.03067 5.84109,36.20871 33.97484,63.34212 71.39508,68.8565 6.23821,0.91928 23.53173,-0.31257 30.77595,-2.19224 z m 70.73928,-146.53508 c 2.08221,-0.57817 5.27661,-2.6822 7.60074,-5.00634 7.81246,-7.81246 7.6572,-20.57486 -0.33817,-27.7982 -4.71126,-4.25633 -9.32076,-5.72823 -15.83384,-5.05602 -20.27906,2.09298 -23.41533,30.65077 -4.1222,37.5353 4.30507,1.53622 7.99211,1.6307 12.69347,0.32526 z"
     id="path3" />
  <path
     style="fill:#ff9b50;stroke-width:0.932605"
     d="m 211.49764,307.24389 c -11.99966,-2.90911 -23.23373,-10.66531 -30.56219,-21.10065 -12.50833,-17.81123 -12.65044,-41.20797 -0.36254,-59.6916 15.76228,-23.70986 48.53887,-30.23353 72.38298,-14.40671 12.11128,8.03901 21.19372,22.37167 23.28978,36.75274 5.27165,36.16873 -29.00693,67.11104 -64.74803,58.44622 z"
     id="path4" />
</svg>
