<svg width="255" height="187" viewBox="0 0 255 187" fill="none" xmlns="http://www.w3.org/2000/svg">
<path opacity="0.765" fill-rule="evenodd" clip-rule="evenodd" d="M0.500081 0.5C49.4901 2.505 98.4901 3.672 147.5 4C150.53 0.911 153.69 0.745 157 3.5C157.67 6.167 157.67 8.833 157 11.5C152.74 14.355 149.08 13.688 146 9.5C97.8601 10.659 49.7001 10.826 1.50008 10C0.550082 6.943 0.220081 3.777 0.500081 0.5Z" fill="#FF9B50"/>
<path opacity="0.996" fill-rule="evenodd" clip-rule="evenodd" d="M250.5 10.5C251.82 10.33 252.99 10.663 254 11.5C254.5 14.482 254.66 17.482 254.5 20.5C207.48 26.097 160.48 31.931 113.5 38C110.81 38.341 108.81 39.674 107.5 42C100.56 44.06 97.7301 41.56 99.0001 34.5C99.5001 33.333 100.33 32.5 101.5 32C104.9 31.262 108.07 31.762 111 33.5C157.73 26.328 204.23 18.661 250.5 10.5Z" fill="#FF9B50"/>
<path opacity="0.95" fill-rule="evenodd" clip-rule="evenodd" d="M109.5 21.5C121.84 21.333 134.17 21.5 146.5 22C147.81 23.395 147.48 24.395 145.5 25C125.64 28.022 105.64 29.355 85.5001 29C68.0701 29.651 50.7301 31.318 33.5001 34C27.0201 35.162 20.6801 36.829 14.5001 39C17.8301 41.103 21.5001 42.27 25.5001 42.5C25.5001 48.833 25.5001 55.167 25.5001 61.5C19.6801 61.755 14.5101 60.088 10.0001 56.5C9.33006 49.167 9.33006 41.833 10.0001 34.5C18.3101 30.4 27.1401 27.9 36.5001 27C60.9001 23.986 85.2401 22.152 109.5 21.5Z" fill="#FF9B50"/>
<path opacity="0.997" fill-rule="evenodd" clip-rule="evenodd" d="M216.5 27.5C225.84 27.583 234.84 29.417 243.5 33C244.67 33.5 245.5 34.333 246 35.5C246.67 42.5 246.67 49.5 246 56.5C241.49 60.088 236.32 61.755 230.5 61.5C230.5 55.167 230.5 48.833 230.5 42.5C234.1 42.25 237.44 41.25 240.5 39.5C240.29 38.914 239.96 38.414 239.5 38C228.78 35.055 217.94 32.888 207 31.5C206.41 30.517 206.74 29.85 208 29.5C211 28.965 213.83 28.298 216.5 27.5Z" fill="#FF9B50"/>
<path opacity="0.996" fill-rule="evenodd" clip-rule="evenodd" d="M34.5 180.5C33.71 179.482 32.04 179.149 29.5 179.5C29.5 173.167 29.5 166.833 29.5 160.5C31.17 160.5 32.83 160.5 34.5 160.5C34.5 152.833 34.5 145.167 34.5 137.5C33.17 137.5 31.83 137.5 30.5 137.5C30.5 120.833 30.5 104.167 30.5 87.5C31.83 87.5 33.17 87.5 34.5 87.5C34.5 79.833 34.5 72.167 34.5 64.5C33.21 64.263 32.21 64.596 31.5 65.5C30.5 65.5 29.5 65.5 28.5 65.5C28.5 58.167 28.5 50.833 28.5 43.5C33.83 44.167 39.17 44.833 44.5 45.5C44.5 52.5 44.5 59.5 44.5 66.5C42.83 66.5 41.17 66.5 39.5 66.5C39.33 73.175 39.5 79.842 40 86.5C41.36 87.38 42.86 87.714 44.5 87.5C44.5 104.833 44.5 122.167 44.5 139.5C42.83 139.5 41.17 139.5 39.5 139.5C39.5 146.5 39.5 153.5 39.5 160.5C41.17 160.5 42.83 160.5 44.5 160.5C44.5 167.5 44.5 174.5 44.5 181.5C40.96 181.813 37.62 181.479 34.5 180.5Z" fill="#FF9B50"/>
<path opacity="0.965" fill-rule="evenodd" clip-rule="evenodd" d="M215.5 159.5C216.5 153.258 216.83 146.258 216.5 138.5C215.17 138.5 213.83 138.5 212.5 138.5C212.17 121.82 212.5 105.153 213.5 88.5C214.17 88.167 214.83 87.833 215.5 87.5C216.82 80.01 216.82 72.677 215.5 65.5C213.99 66.728 212.49 66.728 211 65.5C210.17 58.808 210.34 52.142 211.5 45.5C216.42 44.115 221.42 43.115 226.5 42.5C226.5 49.833 226.5 57.167 226.5 64.5C225.17 64.5 223.83 64.5 222.5 64.5C222.33 71.508 222.5 78.508 223 85.5C224.01 84.663 225.18 84.33 226.5 84.5C226.5 102.167 226.5 119.833 226.5 137.5C225.18 137.33 224.01 137.663 223 138.5C222.5 145.158 222.33 151.825 222.5 158.5C223.83 158.5 225.17 158.5 226.5 158.5C226.83 165.532 226.5 172.532 225.5 179.5C220.57 180.575 215.57 181.242 210.5 181.5C210.33 174.825 210.5 168.158 211 161.5C212.47 160.733 213.97 160.067 215.5 159.5Z" fill="#FF9B50"/>
<path opacity="0.965" fill-rule="evenodd" clip-rule="evenodd" d="M48.5002 46.5C71.0902 49.078 93.7502 50.412 116.5 50.5C116.5 56.833 116.5 63.167 116.5 69.5C94.1102 69.409 71.7802 68.242 49.5002 66C47.1602 59.705 46.8302 53.205 48.5002 46.5Z" fill="#FF9B50"/>
<path opacity="0.961" fill-rule="evenodd" clip-rule="evenodd" d="M201.5 46.5C203.5 46.5 205.5 46.5 207.5 46.5C207.5 53.167 207.5 59.833 207.5 66.5C184.53 68.206 161.53 69.206 138.5 69.5C138.19 63.242 138.52 57.076 139.5 51C160.4 50.606 181.07 49.106 201.5 46.5Z" fill="#FF9B50"/>
<path opacity="0.95" fill-rule="evenodd" clip-rule="evenodd" d="M130.5 91.5C131.57 92.434 132.9 92.768 134.5 92.5C134.5 109.5 134.5 126.5 134.5 143.5C133.17 143.5 131.83 143.5 130.5 143.5C130.5 150.5 130.5 157.5 130.5 164.5C132.17 164.5 133.83 164.5 135.5 164.5C135.5 171.833 135.5 179.167 135.5 186.5C130.24 186.805 125.07 186.471 120 185.5C119.33 178.833 119.33 172.167 120 165.5C121.36 164.62 122.86 164.286 124.5 164.5C125.5 157.923 125.83 150.59 125.5 142.5C124.17 142.5 122.83 142.5 121.5 142.5C121.5 125.833 121.5 109.167 121.5 92.5C122.83 92.5 124.17 92.5 125.5 92.5C125.5 84.833 125.5 77.167 125.5 69.5C123.5 69.5 121.5 69.5 119.5 69.5C119.5 62.833 119.5 56.167 119.5 49.5C124.83 49.5 130.17 49.5 135.5 49.5C135.5 56.5 135.5 63.5 135.5 70.5C133.83 70.5 132.17 70.5 130.5 70.5C130.5 77.5 130.5 84.5 130.5 91.5Z" fill="#FF9B50"/>
<path opacity="0.954" fill-rule="evenodd" clip-rule="evenodd" d="M240.5 149.5C236.21 150.656 231.87 151.656 227.5 152.5C227.33 149.15 227.5 145.817 228 142.5C229.01 141.663 230.18 141.33 231.5 141.5C231.5 120.833 231.5 100.167 231.5 79.5C230.17 79.5 228.83 79.5 227.5 79.5C227.5 75.5 227.5 71.5 227.5 67.5C233.23 64.895 239.23 62.895 245.5 61.5C245.67 89.835 245.5 118.169 245 146.5C243.73 147.883 242.23 148.883 240.5 149.5Z" fill="#FF9B50"/>
<path opacity="0.557" fill-rule="evenodd" clip-rule="evenodd" d="M15.5001 63.5C14.1701 63.5 12.8301 63.5 11.5001 63.5C11.5001 91.167 11.5001 118.833 11.5001 146.5C10.5001 118.338 10.1701 90.005 10.5001 61.5C12.5501 61.402 14.2201 62.069 15.5001 63.5Z" fill="#FF9B50"/>
<path opacity="0.999" fill-rule="evenodd" clip-rule="evenodd" d="M15.5 63.5C19.91 63.463 23.58 64.963 26.5 68C27.45 68.483 28.45 68.649 29.5 68.5C29.83 73.214 29.49 77.88 28.5 82.5C27.58 81.873 26.58 81.539 25.5 81.5C24.5 101.66 24.17 121.993 24.5 142.5C25.79 142.737 26.79 142.404 27.5 141.5C28.12 141.611 28.62 141.944 29 142.5C29.5 146.152 29.67 149.818 29.5 153.5C22.48 153.498 16.48 151.165 11.5 146.5C11.5 118.833 11.5 91.167 11.5 63.5C12.83 63.5 14.17 63.5 15.5 63.5Z" fill="#FF9B50"/>
<path opacity="0.985" fill-rule="evenodd" clip-rule="evenodd" d="M43.5 70.5C46.18 70.128 49.18 69.795 52.5 69.5C75.15 71.528 97.82 73.028 120.5 74C121.63 78.413 121.8 82.913 121 87.5C119.64 88.38 118.14 88.714 116.5 88.5C116.5 108.167 116.5 127.833 116.5 147.5C118.14 147.286 119.64 147.62 121 148.5C121.5 152.821 121.67 157.154 121.5 161.5C96.91 162.56 72.58 161.227 48.5 157.5C47.43 156.566 46.1 156.232 44.5 156.5C44.5 152.833 44.5 149.167 44.5 145.5C46.17 145.5 47.83 145.5 49.5 145.5C49.83 124.823 49.5 104.156 48.5 83.5C47.26 82.754 45.93 82.421 44.5 82.5C44.82 78.298 44.48 74.298 43.5 70.5Z" fill="#FF9B50"/>
<path opacity="0.978" fill-rule="evenodd" clip-rule="evenodd" d="M153.5 162.5C147.93 160.547 141.93 159.88 135.5 160.5C135.5 156.833 135.5 153.167 135.5 149.5C137.14 149.714 138.64 149.38 140 148.5C140.83 128.158 140.67 107.825 139.5 87.5C138.89 87.624 138.56 87.957 138.5 88.5C137.18 88.67 136.01 88.337 135 87.5C134.5 82.845 134.33 78.179 134.5 73.5C160 72.908 185.33 71.575 210.5 69.5C211.09 69.709 211.59 70.043 212 70.5C212.5 74.821 212.67 79.154 212.5 83.5C211.18 83.33 210.01 83.663 209 84.5C208.5 104.164 208.33 123.831 208.5 143.5C209.83 143.5 211.17 143.5 212.5 143.5C212.5 148.167 212.5 152.833 212.5 157.5C192.85 159.443 173.18 161.11 153.5 162.5Z" fill="#FF9B50"/>
<path opacity="0.533" fill-rule="evenodd" clip-rule="evenodd" d="M227.5 67.5C227.5 71.5 227.5 75.5 227.5 79.5C228.83 79.5 230.17 79.5 231.5 79.5C231.5 100.167 231.5 120.833 231.5 141.5C230.18 141.33 229.01 141.663 228 142.5C227.5 145.817 227.33 149.15 227.5 152.5C231.87 151.656 236.21 150.656 240.5 149.5C236.14 152.836 231.14 154.17 225.5 153.5C225.33 149.486 225.5 145.486 226 141.5C227.36 140.62 228.86 140.286 230.5 140.5C230.67 120.497 230.5 100.497 230 80.5C228.67 81.833 227.33 81.833 226 80.5C225.83 78.333 225.67 76.167 225.5 74C225.53 71.39 226.2 69.223 227.5 67.5Z" fill="#FF9B50"/>
<path opacity="0.075" fill-rule="evenodd" clip-rule="evenodd" d="M25.5001 81.5C24.8501 101.861 25.5101 121.861 27.5001 141.5C26.7901 142.404 25.7901 142.737 24.5001 142.5C24.1701 121.993 24.5001 101.66 25.5001 81.5Z" fill="#FF9B50"/>
<path opacity="0.808" fill-rule="evenodd" clip-rule="evenodd" d="M43.5 70.5C44.48 74.298 44.82 78.298 44.5 82.5C45.93 82.421 47.26 82.754 48.5 83.5C49.5 104.156 49.83 124.823 49.5 145.5C47.83 145.5 46.17 145.5 44.5 145.5C44.5 149.167 44.5 152.833 44.5 156.5C46.1 156.232 47.43 156.566 48.5 157.5C46.83 157.5 45.17 157.5 43.5 157.5C43.5 152.833 43.5 148.167 43.5 143.5C44.83 143.5 46.17 143.5 47.5 143.5C47.67 123.831 47.5 104.164 47 84.5C45.99 83.663 44.82 83.33 43.5 83.5C43.5 79.167 43.5 74.833 43.5 70.5Z" fill="#FF9B50"/>
<path opacity="0.848" fill-rule="evenodd" clip-rule="evenodd" d="M31.5 65.5C32.21 64.596 33.21 64.263 34.5 64.5C34.5 72.167 34.5 79.833 34.5 87.5C33.17 87.5 31.83 87.5 30.5 87.5C30.5 104.167 30.5 120.833 30.5 137.5C31.83 137.5 33.17 137.5 34.5 137.5C34.5 145.167 34.5 152.833 34.5 160.5C32.83 160.5 31.17 160.5 29.5 160.5C29.5 166.833 29.5 173.167 29.5 179.5C32.04 179.149 33.71 179.482 34.5 180.5C32.5 180.5 30.5 180.5 28.5 180.5C28.5 173.5 28.5 166.5 28.5 159.5C30.17 159.5 31.83 159.5 33.5 159.5C33.5 152.5 33.5 145.5 33.5 138.5C31.83 138.5 30.17 138.5 28.5 138.5C28.5 120.833 28.5 103.167 28.5 85.5C29.93 85.421 31.26 85.754 32.5 86.5C32.83 83 33.17 79.5 33.5 76C33.49 72.098 32.82 68.598 31.5 65.5Z" fill="#FF9B50"/>
<path opacity="0.635" fill-rule="evenodd" clip-rule="evenodd" d="M153.5 162.5C147.14 162.593 140.8 162.26 134.5 161.5C134.5 156.833 134.5 152.167 134.5 147.5C135.83 147.5 137.17 147.5 138.5 147.5C138.5 127.833 138.5 108.167 138.5 88.5C138.56 87.957 138.89 87.624 139.5 87.5C140.67 107.825 140.83 128.158 140 148.5C138.64 149.38 137.14 149.714 135.5 149.5C135.5 153.167 135.5 156.833 135.5 160.5C141.93 159.88 147.93 160.547 153.5 162.5Z" fill="#FF9B50"/>
<path opacity="0.608" fill-rule="evenodd" clip-rule="evenodd" d="M215.5 65.5C216.82 72.677 216.82 80.01 215.5 87.5C214.83 87.833 214.17 88.167 213.5 88.5C212.5 105.153 212.17 121.82 212.5 138.5C213.83 138.5 215.17 138.5 216.5 138.5C216.83 146.258 216.5 153.258 215.5 159.5C215.5 152.833 215.5 146.167 215.5 139.5C214.17 139.5 212.83 139.5 211.5 139.5C211.17 122.154 211.5 104.821 212.5 87.5C213.17 87.167 213.83 86.833 214.5 86.5C215.5 79.532 215.83 72.532 215.5 65.5Z" fill="#FF9B50"/>
<path opacity="0.702" fill-rule="evenodd" clip-rule="evenodd" d="M119.5 69.5C121.5 69.5 123.5 69.5 125.5 69.5C125.5 77.167 125.5 84.833 125.5 92.5C124.17 92.5 122.83 92.5 121.5 92.5C121.5 109.167 121.5 125.833 121.5 142.5C122.83 142.5 124.17 142.5 125.5 142.5C125.83 150.59 125.5 157.923 124.5 164.5C124.5 157.5 124.5 150.5 124.5 143.5C122.83 143.5 121.17 143.5 119.5 143.5C119.5 126.167 119.5 108.833 119.5 91.5C121.17 91.5 122.83 91.5 124.5 91.5C124.5 84.5 124.5 77.5 124.5 70.5C122.59 70.784 120.92 70.451 119.5 69.5Z" fill="#FF9B50"/>
<path opacity="0.271" fill-rule="evenodd" clip-rule="evenodd" d="M130.5 91.5C132.17 91.5 133.83 91.5 135.5 91.5C135.83 109.008 135.5 126.341 134.5 143.5C134.5 126.5 134.5 109.5 134.5 92.5C132.9 92.768 131.57 92.434 130.5 91.5Z" fill="#FF9B50"/>
<path opacity="0.998" fill-rule="evenodd" clip-rule="evenodd" d="M243.5 150.5C244.5 150.414 245.33 150.748 246 151.5C246.67 158.167 246.67 164.833 246 171.5C241.6 175.357 236.43 177.357 230.5 177.5C230.5 170.833 230.5 164.167 230.5 157.5C234.51 157.498 238.18 156.332 241.5 154C242.82 153.184 243.49 152.017 243.5 150.5Z" fill="#FF9B50"/>
<path opacity="0.999" fill-rule="evenodd" clip-rule="evenodd" d="M9.49994 151.5C14.2599 154.487 19.4299 156.82 24.9999 158.5C25.4999 164.825 25.6699 171.158 25.4999 177.5C19.7699 177.446 14.5999 175.779 9.99994 172.5C9.49994 165.508 9.32994 158.508 9.49994 151.5Z" fill="#FF9B50"/>
<path opacity="0.96" fill-rule="evenodd" clip-rule="evenodd" d="M48.5 161.5C71.09 163.888 93.75 165.221 116.5 165.5C116.81 172.09 116.48 178.59 115.5 185C92.78 184.958 70.11 183.791 47.5 181.5C47.21 174.745 47.54 168.078 48.5 161.5Z" fill="#FF9B50"/>
<path opacity="0.961" fill-rule="evenodd" clip-rule="evenodd" d="M203.5 161.5C204.83 161.5 206.17 161.5 207.5 161.5C207.5 168.167 207.5 174.833 207.5 181.5C184.66 184.04 161.83 185.04 139 184.5C138.19 178.251 138.36 172.084 139.5 166C161.05 165.371 182.39 163.871 203.5 161.5Z" fill="#FF9B50"/>
</svg>
