<svg width="315" height="267" viewBox="0 0 315 267" fill="none" xmlns="http://www.w3.org/2000/svg">
<path opacity="0.85" fill-rule="evenodd" clip-rule="evenodd" d="M3.37579 159.526C82.6369 107.154 162.081 55.0607 241.707 3.24633C244.395 2.5967 246.655 3.30306 248.49 5.36622C270.419 36.8954 291.216 69.098 310.883 101.974C311.474 103.78 311.14 105.396 309.884 106.822C230.899 159.611 151.547 211.844 71.8279 263.519C70.2115 263.186 68.5965 262.853 66.9801 262.52C44.9801 230.311 23.5373 197.735 2.65156 164.792C2.21074 162.867 2.45123 161.112 3.37579 159.526ZM245.545 10.8961C252.326 21.1976 259.108 31.5001 265.888 41.8016C187.093 93.6675 108.298 145.534 29.5026 197.4C22.0493 186.648 15.1807 175.605 8.89508 164.274C86.0742 112.076 163.943 60.6209 242.5 9.90749C243.52 10.4274 244.535 10.7565 245.545 10.8961ZM46.4304 195.835C54.6777 208.364 62.9249 220.893 71.1722 233.423C73.3999 231.956 75.6268 230.49 77.8545 229.024C72.723 221.228 67.591 213.432 62.4596 205.636C58.9698 200.92 56.1322 196.003 53.948 190.886C65.8609 208.985 77.7732 227.082 89.6861 245.18C86.9021 247.012 84.1172 248.846 81.3332 250.678C69.0488 232.617 57.4154 214.337 46.4304 195.835ZM60.5881 193.699C68.4166 204.088 75.8432 214.763 82.8662 225.725C84.8149 224.442 86.7645 223.159 88.7132 221.876C81.6093 211.366 74.9235 200.603 68.6554 189.586C77.5595 201.258 88.4672 217.223 101.38 237.483C98.3171 239.499 95.2549 241.514 92.1919 243.53C78.8775 223.934 68.3424 207.324 60.5881 193.699ZM68.1479 181.54C69.0359 181.364 69.681 181.737 70.0828 182.66C77.9633 194.632 85.8444 206.605 93.7249 218.578C95.9526 217.111 98.1795 215.645 100.407 214.179C94.1761 204.713 87.9445 195.246 81.7134 185.779C88.4533 194.087 98.6281 208.939 112.239 230.335C109.455 232.167 106.67 234.001 103.886 235.833C91.9731 217.735 80.0607 199.638 68.1479 181.54ZM87.3594 168.894C100.01 186.299 112.201 204.213 123.933 222.637C121.149 224.47 118.364 226.303 115.58 228.136C108.108 217.087 100.916 205.858 94.0049 194.449C98.0832 199.736 101.888 205.213 105.419 210.88C107.368 209.597 109.317 208.314 111.266 207.031C103.723 194.057 95.7541 181.345 87.3594 168.894ZM100.883 180.344C106.616 187.723 112.026 195.335 117.113 203.183C119.062 201.9 121.011 200.617 122.96 199.334C115.487 188.286 108.296 177.056 101.385 165.648C112.797 182.076 123.933 198.69 134.792 215.49C132.007 217.322 129.223 219.155 126.439 220.988C110.887 198.443 102.369 184.895 100.883 180.344ZM115.876 177.659C119.907 183.784 123.94 189.91 127.972 196.035C130.199 194.569 132.426 193.103 134.654 191.637C130.255 184.954 125.857 178.272 121.458 171.59C117.235 165.765 113.666 159.735 110.747 153.499C122.66 171.597 134.573 189.694 146.485 207.792C143.423 209.809 140.36 211.824 137.297 213.84C125.101 195.917 113.466 177.636 102.395 158.997C107.427 164.829 111.921 171.048 115.876 177.659ZM114.089 151.3C122.187 163.947 130.714 176.293 139.666 188.338C141.614 187.055 143.564 185.772 145.513 184.489C140.162 176.418 135.126 168.161 130.403 159.716C134.502 163.756 143.761 177.215 158.179 200.095C155.117 202.111 152.054 204.127 148.991 206.143C136.707 188.082 125.074 169.801 114.089 151.3ZM138.978 163.649C142.827 169.496 146.676 175.343 150.524 181.19C152.473 179.907 154.423 178.624 156.371 177.341C151.913 170.673 147.793 163.807 144.011 156.745C145.854 155.621 154.196 167.689 169.038 192.947C165.975 194.964 162.913 196.979 159.85 198.995C147.654 181.072 136.019 162.791 124.947 144.152C130.164 150.262 134.841 156.761 138.978 163.649ZM135.806 137.004C140.012 141.593 143.772 146.7 147.088 152.325C151.853 159.564 156.618 166.803 161.383 174.042C163.611 172.576 165.838 171.11 168.065 169.644C159.818 157.115 151.571 144.585 143.324 132.056C155.974 149.461 168.165 167.375 179.897 185.8C177.113 187.632 174.328 189.465 171.544 191.298C159.631 173.2 147.719 155.102 135.806 137.004ZM147.5 129.307C149.075 129.969 150.269 131.178 151.084 132.934C158.415 144.07 165.746 155.208 173.077 166.345C175.305 164.879 177.532 163.413 179.759 161.946C172.978 151.645 166.197 141.342 159.416 131.041C167.777 141.875 178.502 157.561 191.591 178.102C188.807 179.935 186.022 181.768 183.238 183.6C171.325 165.502 159.413 147.405 147.5 129.307ZM165.792 131.633C172.486 140.374 178.813 149.379 184.771 158.648C186.72 157.365 188.669 156.082 190.618 154.799C183.331 142.066 175.545 129.632 167.261 117.496C179.417 134.147 191.425 151.782 203.285 170.405C200.222 172.421 197.16 174.437 194.097 176.453C179.628 155.221 170.193 140.282 165.792 131.633ZM170.603 115.297C179.401 126.853 187.744 138.921 195.63 151.5C197.857 150.034 200.084 148.568 202.312 147.101C197.73 140.141 193.148 133.18 188.567 126.219C190.784 126.525 199.31 138.871 214.144 163.257C211.36 165.09 208.575 166.923 205.791 168.755C194.062 150.936 182.332 133.116 170.603 115.297ZM225.838 155.56C223.054 157.392 220.269 159.225 217.485 161.058C207.997 146.947 198.789 132.656 189.862 118.184C195.958 126.535 201.778 135.075 207.324 143.802C209.551 142.336 211.778 140.87 214.006 139.404C207.041 128.823 200.077 118.244 193.113 107.663C202.017 119.335 212.925 135.301 225.838 155.56ZM200.588 109.926C206.453 118.836 212.318 127.745 218.182 136.655C220.41 135.189 222.637 133.723 224.865 132.256C217.711 121.987 211.209 111.501 205.357 100.801C215.803 116.671 226.25 132.542 236.696 148.412C233.912 150.245 231.127 152.078 228.343 153.91C213.673 132.41 204.421 117.749 200.588 109.926ZM215.993 84.222C224.241 96.7513 232.488 109.281 240.735 121.81C242.963 120.343 245.19 118.878 247.417 117.411C243.562 112.141 240.358 106.668 237.806 100.991C244.954 111.85 252.101 122.708 259.249 133.567C256.465 135.4 253.68 137.233 250.896 139.065C238.612 121.005 226.978 102.724 215.993 84.222ZM232.086 83.2068C238.867 93.5084 245.648 103.811 252.429 114.112C254.657 112.646 256.884 111.18 259.111 109.714C251.781 98.577 244.449 87.4393 237.119 76.3025C247.112 89.6485 258.386 106.171 270.943 125.87C268.159 127.702 265.374 129.535 262.59 131.368C248.898 111.224 238.731 95.1698 232.086 83.2068ZM246.244 81.0709C251.606 89.5201 257.243 97.7817 263.156 105.855C265.659 105.326 267.93 104.23 269.97 102.566C272.045 103.463 275.988 108.848 281.802 118.722C279.018 120.555 276.233 122.388 273.449 124.22C258.572 102.454 249.503 88.0708 246.244 81.0709ZM261.786 79.2205C266.185 85.9028 270.583 92.5851 274.982 99.2674C277.21 97.801 279.436 96.3352 281.664 94.8688C277.815 89.0218 273.967 83.1748 270.118 77.3278C265.428 70.8041 261.307 63.9388 257.758 56.7312C270.5 74.2703 282.691 92.1853 294.331 110.475C291.268 112.491 288.206 114.507 285.143 116.523C267.811 92.9025 260.026 80.4691 261.786 79.2205ZM266.111 51.233C278.023 69.3311 289.936 87.4284 301.849 105.527C300.178 106.626 298.507 107.726 296.837 108.825C284.924 90.7273 273.012 72.63 261.099 54.5319C262.769 53.4323 264.44 52.3326 266.111 51.233ZM38.0776 201.333C39.47 200.416 40.8616 199.5 42.254 198.584C54.1669 216.682 66.0792 234.779 77.9921 252.877C76.5997 253.794 75.2081 254.71 73.8157 255.626C61.9028 237.528 49.9905 219.431 38.0776 201.333ZM236.559 124.559C240.224 130.128 243.889 135.696 247.555 141.265C245.049 142.914 242.543 144.564 240.037 146.213C231.832 134.051 223.907 121.708 216.263 109.186C221.076 115.587 225.613 122.178 229.876 128.957C232.104 127.491 234.331 126.025 236.559 124.559Z" fill="#FF9B50"/>
<path opacity="0.369" fill-rule="evenodd" clip-rule="evenodd" d="M8.89504 164.274C15.1806 175.605 22.0493 186.648 29.5026 197.4C108.298 145.534 187.093 93.6675 265.888 41.8016C259.107 31.5 252.326 21.1976 245.545 10.8961C252.933 20.3026 260.176 30.7 267.273 42.0871C187.921 94.3197 108.569 146.552 29.2171 198.785C21.1384 187.69 14.3649 176.187 8.89504 164.274Z" fill="#FF9B50"/>
<path opacity="0.874" fill-rule="evenodd" clip-rule="evenodd" d="M34.3345 177.458C36.6829 179.249 38.6105 181.572 40.1181 184.426C45.1298 181.127 50.1415 177.828 55.1532 174.529C53.1277 172.016 51.7564 169.327 51.0402 166.462C53.0564 169.525 55.072 172.587 57.0882 175.65C51.5193 179.316 45.9513 182.981 40.3825 186.647C38.3663 183.584 36.3506 180.521 34.3345 177.458Z" fill="#FF9B50"/>
<path opacity="0.85" fill-rule="evenodd" clip-rule="evenodd" d="M78.7735 119.474C79.5582 118.855 80.4376 118.676 81.4116 118.935C86.0882 125.434 90.7658 131.933 95.4424 138.432C96.7815 138.664 97.8403 139.363 98.6197 140.531C98.818 142.865 99.4523 145.042 100.523 147.06C99.6877 147.61 98.8524 148.159 98.0171 148.709C96.4065 146.908 94.5667 145.326 92.4978 143.962C88.9535 135.247 84.3792 127.085 78.7735 119.474Z" fill="#FF9B50"/>
<path opacity="0.877" fill-rule="evenodd" clip-rule="evenodd" d="M52.1609 164.527C57.7297 160.862 63.2977 157.196 68.8666 153.531C71.0659 156.872 73.2651 160.213 75.4644 163.554C69.8955 167.22 64.3275 170.885 58.7587 174.551C56.5594 171.209 54.3602 167.868 52.1609 164.527Z" fill="#FF9B50"/>
<path opacity="0.895" fill-rule="evenodd" clip-rule="evenodd" d="M34.3345 177.458C39.1704 172.679 44.7384 169.014 51.0402 166.462C51.7564 169.327 53.1277 172.016 55.1532 174.529C50.1415 177.828 45.1298 181.127 40.1181 184.426C38.6105 181.572 36.6829 179.249 34.3345 177.458Z" fill="#FF9B50"/>
<path opacity="0.99" fill-rule="evenodd" clip-rule="evenodd" d="M239.836 38.5981C244.208 35.5212 248.755 32.7285 253.475 30.2187C255.521 31.3428 256.852 33.0611 257.467 35.3731C253.569 39.3023 249.067 42.4658 243.959 44.8627C241.518 43.4794 240.143 41.3912 239.836 38.5981Z" fill="#FF9B50"/>
<path opacity="0.948" fill-rule="evenodd" clip-rule="evenodd" d="M221.46 50.6941C225.554 47.8003 229.822 45.1907 234.264 42.8644C236.839 43.2884 238.448 44.8235 239.09 47.4691C234.982 51.7382 230.11 54.9453 224.473 57.0909C221.843 55.6903 220.838 53.5585 221.46 50.6941Z" fill="#FF9B50"/>
<path opacity="0.996" fill-rule="evenodd" clip-rule="evenodd" d="M202.248 63.3398C206.833 59.9278 211.75 57.0915 216.998 54.8282C219.278 55.9638 220.468 57.773 220.571 60.2576C216.121 63.7847 211.479 67.04 206.647 70.0221C205.18 67.7944 203.714 65.5675 202.248 63.3398Z" fill="#FF9B50"/>
<path opacity="0.969" fill-rule="evenodd" clip-rule="evenodd" d="M183.872 75.4358C188.244 72.3589 192.791 69.5662 197.511 67.0564C201.022 67.5387 202.305 69.4883 201.36 72.9034C197.272 76.3927 192.817 79.3254 187.995 81.7004C185.554 80.3171 184.179 78.2289 183.872 75.4358Z" fill="#FF9B50"/>
<path opacity="0.596" fill-rule="evenodd" clip-rule="evenodd" d="M61.4336 144.057C51.6991 152.836 40.929 160.724 29.1218 167.72C30.0384 169.113 30.9543 170.504 31.8709 171.897C43.2867 164.383 54.7017 156.869 66.1176 149.354C55.8249 158.502 44.4976 166.757 32.1352 174.117C30.4858 171.611 28.8363 169.106 27.1869 166.6C38.6027 159.085 50.0177 151.572 61.4336 144.057Z" fill="#FF9B50"/>
<path opacity="0.72" fill-rule="evenodd" clip-rule="evenodd" d="M72.9266 123.323C73.7113 122.704 74.5907 122.525 75.5646 122.784C77.6317 125.015 79.6988 127.246 81.7659 129.477C85.5737 136.913 89.8777 144.057 94.676 150.909C93.5626 151.641 92.4483 152.375 91.3349 153.108C86.9392 145.991 82.0789 139.213 76.7542 132.775C75.2561 129.668 73.9807 126.518 72.9266 123.323Z" fill="#FF9B50"/>
<path opacity="0.981" fill-rule="evenodd" clip-rule="evenodd" d="M61.4335 144.057C63.4005 145.285 64.9628 147.051 66.1175 149.354C54.7017 156.869 43.2867 164.383 31.8708 171.897C30.9543 170.504 30.0383 169.113 29.1217 167.72C40.9289 160.724 51.6991 152.836 61.4335 144.057Z" fill="#FF9B50"/>
<path opacity="0.842" fill-rule="evenodd" clip-rule="evenodd" d="M194.836 50.2607C198.93 47.3669 203.199 44.7573 207.64 42.4311C211.334 43.1924 212.8 45.4193 212.039 49.1133C208.229 52.4196 204.053 55.1686 199.51 57.3606C196.878 55.7021 195.321 53.3358 194.836 50.2607Z" fill="#FF9B50"/>
<path opacity="0.853" fill-rule="evenodd" clip-rule="evenodd" d="M231.589 26.0687C235.961 22.9919 240.508 20.1992 245.228 17.6893C247.651 19.047 249.025 21.1352 249.352 23.954C245.556 27.7908 241.193 30.8617 236.262 33.1687C233.631 31.5102 232.073 29.1438 231.589 26.0687Z" fill="#FF9B50"/>
<path opacity="0.837" fill-rule="evenodd" clip-rule="evenodd" d="M213.212 38.1648C217.585 35.0879 222.131 32.2952 226.852 29.7854C232.843 34.2496 232.313 37.9905 225.261 41.0089C223.081 42.244 220.901 43.4799 218.721 44.7149C214.374 44.7064 212.537 42.5228 213.212 38.1648Z" fill="#FF9B50"/>
<path opacity="0.821" fill-rule="evenodd" clip-rule="evenodd" d="M175.625 62.9064C179.997 59.8296 184.543 57.0369 189.264 54.527C192.958 55.2884 194.424 57.5152 193.663 61.2093C189.853 64.5155 185.676 67.2646 181.133 69.4566C177.845 68.5262 176.009 66.3435 175.625 62.9064Z" fill="#FF9B50"/>
<path opacity="0.486" fill-rule="evenodd" clip-rule="evenodd" d="M41.1858 144.216C47.253 140.469 50.3858 142.198 50.5855 149.402C46.1181 153.532 42.9343 152.634 41.0325 146.711C41.3323 145.863 41.3832 145.031 41.1858 144.216Z" fill="#FF9B50"/>
<path opacity="0.577" fill-rule="evenodd" clip-rule="evenodd" d="M85.4558 115.076C86.0322 114.829 86.6329 114.832 87.2586 115.086C89.7711 118.354 92.667 121.237 95.9446 123.735C98.4283 130.74 101.903 137.232 106.37 143.211C105.535 143.761 104.699 144.311 103.864 144.861C100.139 138.394 95.5499 132.635 90.0976 127.584C88.8727 123.246 87.3256 119.077 85.4558 115.076Z" fill="#FF9B50"/>
<path opacity="0.987" fill-rule="evenodd" clip-rule="evenodd" d="M66.2443 127.722C67.0796 127.172 67.9149 126.622 68.7502 126.072C72.3037 132.255 76.7096 137.735 81.9669 142.513C83.1122 147.185 85.121 151.45 87.9937 155.307C87.1584 155.857 86.3232 156.407 85.4879 156.956C83.0813 152.793 79.9581 149.261 76.1199 146.362C73.8095 139.644 70.5179 133.43 66.2443 127.722Z" fill="#FF9B50"/>
<path opacity="0.965" fill-rule="evenodd" clip-rule="evenodd" d="M50.3739 138.168C56.4411 134.421 59.5739 136.15 59.7736 143.354C55.3062 147.484 52.1224 146.586 50.2206 140.663C50.5204 139.815 50.5713 138.983 50.3739 138.168Z" fill="#FF9B50"/>
<path opacity="0.906" fill-rule="evenodd" clip-rule="evenodd" d="M31.1623 150.814C37.5568 146.004 40.9687 147.549 41.3972 155.45C35.5092 159.537 32.0973 157.991 31.1623 150.814Z" fill="#FF9B50"/>
<path opacity="0.964" fill-rule="evenodd" clip-rule="evenodd" d="M21.9742 156.862C28.3687 152.052 31.7806 153.597 32.2091 161.498C30.5927 163.635 28.5077 164.409 25.955 163.819C23.9562 161.877 22.6298 159.558 21.9742 156.862Z" fill="#FF9B50"/>
<path opacity="0.584" fill-rule="evenodd" clip-rule="evenodd" d="M103.832 102.98C123.322 90.1509 142.812 77.3215 162.302 64.4926C168.717 74.2379 175.131 83.9823 181.546 93.7276C162.056 106.556 142.565 119.386 123.076 132.215C116.661 122.469 110.247 112.725 103.832 102.98Z" fill="#FF9B50"/>
<path fill-rule="evenodd" clip-rule="evenodd" d="M105.767 104.101C124.701 91.6378 143.633 79.1757 162.566 66.713C168.431 75.623 174.296 84.5321 180.161 93.4421C161.227 105.905 142.295 118.367 123.361 130.83C117.496 121.92 111.632 113.01 105.767 104.101Z" fill="#FF9B50"/>
<path opacity="0.453" fill-rule="evenodd" clip-rule="evenodd" d="M91.3028 111.227C92.0875 110.608 92.9669 110.429 93.9408 110.688C101.163 119.523 107.533 128.898 113.052 138.813C111.939 139.545 110.825 140.279 109.711 141.012C102.464 131.741 96.3278 121.813 91.3028 111.227Z" fill="#FF9B50"/>
<path opacity="0.812" fill-rule="evenodd" clip-rule="evenodd" d="M37.2423 201.883C112.799 150.553 189.088 100.336 266.111 51.233C264.44 52.3326 262.769 53.4322 261.099 54.5319C273.012 72.63 284.924 90.7273 296.837 108.825C298.507 107.726 300.178 106.626 301.849 105.527C300.621 107.494 298.855 109.056 296.551 110.211C284.593 91.7399 272.358 73.4555 259.846 55.3566C271.712 73.6891 283.207 92.0621 294.331 110.475C291.699 113.384 288.542 115.862 284.857 117.908C272.761 99.5317 260.665 81.1554 248.57 62.7791C245.507 64.7953 242.444 66.8109 239.381 68.8271C242.322 72.7137 244.609 76.7951 246.244 81.0709C249.503 88.0707 258.572 102.454 273.449 124.22C276.233 122.388 279.018 120.555 281.802 118.722C279.944 121.146 277.064 123.44 273.163 125.605C261.205 107.135 248.97 88.8503 236.458 70.7515C248.324 89.0839 259.819 107.457 270.943 125.87C268.591 128.593 265.711 130.888 262.305 132.753C213.364 59.6146 212.807 59.9808 260.634 133.853C257.293 136.052 253.952 138.251 250.611 140.45C201.949 67.1284 201.67 67.312 249.775 141C246.244 143.727 242.998 145.465 240.037 146.213C242.543 144.563 245.049 142.914 247.555 141.265C243.889 135.696 240.224 130.128 236.559 124.559C228.311 112.03 220.064 99.5003 211.817 86.971C209.868 88.2538 207.919 89.537 205.97 90.8198C208.653 94.3024 210.756 98.1053 212.282 102.228C208.881 99.4212 206.59 95.9406 205.41 91.7872C204.06 92.0888 202.854 92.6828 201.794 93.5688C213.889 111.945 225.985 130.321 238.081 148.698C234.74 150.897 231.399 153.096 228.058 155.295C216.1 136.825 203.864 118.54 191.352 100.442C203.218 118.774 214.714 137.147 225.838 155.56C212.925 135.301 202.017 119.335 193.113 107.663C191.146 106.435 189.584 104.669 188.429 102.366C186.48 103.649 184.531 104.932 182.582 106.215C186.702 113.08 186.423 113.264 181.747 106.764C180.911 107.314 180.076 107.864 179.241 108.414C191.337 126.79 203.433 145.166 215.529 163.543C211.697 166.325 207.615 168.612 203.285 170.405C191.425 151.782 179.417 134.147 167.261 117.496C164.64 118.159 162.229 119.347 160.029 121.06C162.604 124.395 164.525 127.92 165.792 131.633C170.193 140.282 179.628 155.221 194.097 176.453C181.583 158.955 169.252 141.132 157.106 122.984C168.782 141.633 180.739 160.101 192.976 178.388C189.64 180.963 186.116 182.883 182.403 184.15C182.681 183.967 182.96 183.784 183.238 183.6C186.022 181.768 188.807 179.935 191.591 178.102C178.502 157.561 167.777 141.874 159.416 131.041C157.257 129.531 155.513 127.486 154.182 124.908C152.512 126.008 150.841 127.108 149.171 128.207C150.461 129.651 151.099 131.225 151.084 132.934C150.269 131.178 149.075 129.969 147.5 129.307C146.665 129.857 145.829 130.407 144.994 130.956C156.907 149.054 168.819 167.152 180.732 185.25C177.896 188.676 174.833 190.691 171.544 191.298C174.328 189.465 177.113 187.632 179.897 185.8C168.165 167.375 155.974 149.461 143.324 132.056C141.375 133.339 139.425 134.622 137.477 135.905C141.332 141.175 144.536 146.648 147.088 152.325C143.772 146.7 140.012 141.593 135.806 137.004C146.043 156.174 157.582 174.917 170.423 193.233C167.088 195.808 163.563 197.728 159.85 198.995C156.55 202.294 152.835 205.138 148.706 207.528C136.96 188.491 124.307 170.482 110.747 153.499C113.666 159.734 117.235 165.765 121.458 171.59C116.885 166.444 112.757 160.78 109.077 154.598C107.406 155.698 105.736 156.798 104.065 157.897C108.654 164.277 112.591 170.864 115.876 177.659C111.921 171.048 107.427 164.829 102.395 158.997C113.466 177.636 125.101 195.917 137.297 213.84C140.36 211.824 143.423 209.809 146.485 207.792C143.854 210.702 140.696 213.18 137.012 215.225C124.916 196.849 112.82 178.473 100.724 160.097C97.94 161.929 95.1552 163.762 92.3711 165.595C95.8609 170.311 98.6986 175.228 100.883 180.344C102.369 184.895 110.887 198.443 126.439 220.988C129.223 219.155 132.007 217.322 134.791 215.49C132.934 217.913 130.054 220.208 126.153 222.373C114.195 203.902 101.96 185.618 89.4476 167.519C101.314 185.852 112.809 204.225 123.933 222.637C112.201 204.213 100.01 186.299 87.3594 168.894C85.1317 170.36 82.9049 171.826 80.6771 173.292C92.8617 192.409 92.5827 192.592 79.8419 173.842C79.0066 174.392 78.1713 174.942 77.336 175.491C89.432 193.868 101.528 212.244 113.624 230.62C110.092 233.347 106.846 235.085 103.886 235.833C106.67 234 109.455 232.167 112.239 230.335C98.6281 208.939 88.4533 194.087 81.7134 185.779C78.9897 183.427 76.6954 180.548 74.8302 177.141C72.3925 178.368 70.8105 180.208 70.0828 182.66C69.681 181.737 69.0359 181.364 68.1479 181.539C78.3851 200.709 89.9239 219.452 102.765 237.768C99.1459 240.15 95.5258 242.533 91.9065 244.916C80.1611 225.879 67.508 207.869 53.948 190.886C56.1322 196.003 58.9698 200.92 62.4596 205.636C58.6233 201.607 55.2293 197.056 52.2774 191.986C50.3287 193.269 48.3792 194.552 46.4304 195.835C57.4154 214.336 69.0488 232.617 81.3332 250.678C84.1172 248.846 86.9021 247.012 89.6861 245.18C87.8286 247.603 84.9487 249.898 81.0478 252.063C69.0896 233.593 56.8542 215.308 44.3422 197.209C56.3913 215.82 68.0697 234.471 79.3772 253.163C67.4626 234.46 55.0876 216.267 42.254 198.584C40.8616 199.5 39.47 200.416 38.0776 201.333C37.7994 201.516 37.5205 201.7 37.2423 201.883ZM46.4304 195.835C54.6777 208.364 62.9249 220.893 71.1722 233.423C73.3999 231.956 75.6268 230.49 77.8545 229.024C72.723 221.228 67.591 213.432 62.4596 205.636C58.9698 200.92 56.1322 196.003 53.948 190.886C65.8609 208.984 77.7732 227.082 89.6861 245.18C86.9021 247.012 84.1172 248.846 81.3332 250.678C69.0488 232.617 57.4154 214.336 46.4304 195.835ZM60.5881 193.699C68.4166 204.088 75.8432 214.763 82.8662 225.725C84.8149 224.442 86.7645 223.159 88.7132 221.876C81.6093 211.366 74.9235 200.603 68.6554 189.586C77.5595 201.258 88.4672 217.223 101.38 237.482C98.3171 239.499 95.2549 241.514 92.1919 243.53C78.8775 223.934 68.3424 207.324 60.5881 193.699ZM68.1479 181.539C69.0359 181.364 69.681 181.737 70.0828 182.66C77.9633 194.632 85.8444 206.605 93.7249 218.578C95.9526 217.111 98.1795 215.645 100.407 214.179C94.1761 204.713 87.9445 195.246 81.7134 185.779C88.4533 194.087 98.6281 208.939 112.239 230.335C109.455 232.167 106.67 234 103.886 235.833C91.9731 217.735 80.0607 199.638 68.1479 181.539ZM87.3594 168.894C100.01 186.299 112.201 204.213 123.933 222.637C121.149 224.47 118.364 226.303 115.58 228.136C108.108 217.087 100.916 205.858 94.0049 194.449C98.0832 199.736 101.888 205.213 105.419 210.88C107.368 209.597 109.317 208.314 111.266 207.031C103.723 194.057 95.7541 181.345 87.3594 168.894ZM100.883 180.344C106.616 187.723 112.026 195.335 117.113 203.183C119.062 201.9 121.011 200.617 122.96 199.334C115.487 188.286 108.296 177.056 101.385 165.648C112.797 182.076 123.933 198.69 134.791 215.49C132.007 217.322 129.223 219.155 126.439 220.988C110.887 198.443 102.369 184.895 100.883 180.344ZM115.876 177.659C119.907 183.784 123.94 189.91 127.972 196.035C130.199 194.569 132.426 193.103 134.654 191.636C130.255 184.954 125.857 178.272 121.458 171.59C117.235 165.765 113.666 159.734 110.747 153.499C122.66 171.597 134.573 189.694 146.485 207.792C143.423 209.809 140.36 211.824 137.297 213.84C125.101 195.917 113.466 177.636 102.395 158.997C107.427 164.829 111.921 171.048 115.876 177.659ZM114.089 151.3C122.187 163.947 130.714 176.293 139.666 188.338C141.614 187.055 143.564 185.772 145.513 184.489C140.162 176.418 135.126 168.161 130.403 159.716C134.502 163.756 143.761 177.215 158.179 200.095C155.116 202.111 152.054 204.127 148.991 206.143C136.707 188.082 125.074 169.801 114.089 151.3ZM138.978 163.649C142.827 169.496 146.676 175.343 150.524 181.19C152.473 179.907 154.423 178.624 156.371 177.341C151.913 170.673 147.793 163.807 144.011 156.745C145.854 155.621 154.196 167.688 169.038 192.947C165.975 194.964 162.913 196.979 159.85 198.995C147.654 181.072 136.019 162.791 124.947 144.152C130.164 150.262 134.841 156.761 138.978 163.649ZM135.806 137.004C140.012 141.593 143.772 146.7 147.088 152.325C151.853 159.564 156.618 166.803 161.383 174.042C163.611 172.576 165.838 171.11 168.065 169.644C159.818 157.115 151.571 144.585 143.324 132.056C155.974 149.461 168.165 167.375 179.897 185.8C177.113 187.632 174.328 189.465 171.544 191.298C159.631 173.2 147.719 155.102 135.806 137.004ZM147.5 129.307C149.075 129.969 150.269 131.178 151.084 132.934C158.415 144.07 165.746 155.208 173.077 166.345C175.305 164.879 177.532 163.413 179.759 161.946C172.978 151.645 166.197 141.342 159.416 131.041C167.777 141.874 178.502 157.561 191.591 178.102C188.807 179.935 186.022 181.768 183.238 183.6C171.325 165.502 159.413 147.405 147.5 129.307ZM165.792 131.633C172.486 140.374 178.813 149.379 184.771 158.648C186.72 157.365 188.669 156.082 190.618 154.799C183.331 142.066 175.545 129.632 167.261 117.496C179.417 134.147 191.425 151.782 203.285 170.405C200.222 172.421 197.16 174.437 194.097 176.453C179.628 155.221 170.193 140.282 165.792 131.633ZM170.603 115.297C179.401 126.853 187.744 138.921 195.63 151.5C197.857 150.034 200.084 148.568 202.312 147.101C197.73 140.141 193.148 133.18 188.567 126.219C190.784 126.525 199.31 138.871 214.144 163.257C211.36 165.09 208.575 166.923 205.791 168.755C194.062 150.936 182.332 133.116 170.603 115.297ZM225.838 155.56C223.054 157.392 220.269 159.225 217.485 161.058C207.997 146.947 198.789 132.656 189.862 118.184C195.958 126.535 201.778 135.075 207.324 143.802C209.551 142.336 211.778 140.87 214.006 139.404C207.041 128.823 200.077 118.244 193.113 107.663C202.017 119.335 212.925 135.301 225.838 155.56ZM200.588 109.926C206.453 118.836 212.318 127.745 218.182 136.655C220.41 135.188 222.637 133.723 224.865 132.256C217.711 121.987 211.209 111.501 205.357 100.801C215.803 116.671 226.25 132.542 236.696 148.412C233.912 150.245 231.127 152.078 228.343 153.91C213.673 132.41 204.421 117.749 200.588 109.926ZM215.993 84.222C224.241 96.7512 232.488 109.281 240.735 121.81C242.963 120.343 245.19 118.878 247.417 117.411C243.562 112.141 240.358 106.668 237.806 100.991C244.954 111.85 252.101 122.708 259.249 133.567C256.465 135.4 253.68 137.233 250.896 139.065C238.612 121.005 226.978 102.724 215.993 84.222ZM232.086 83.2068C238.867 93.5084 245.648 103.811 252.429 114.112C254.657 112.646 256.884 111.18 259.111 109.714C251.781 98.577 244.449 87.4393 237.119 76.3024C247.112 89.6485 258.386 106.171 270.943 125.87C268.159 127.702 265.374 129.535 262.59 131.368C248.898 111.224 238.731 95.1698 232.086 83.2068ZM246.244 81.0709C251.606 89.52 257.243 97.7816 263.156 105.855C265.659 105.326 267.93 104.23 269.97 102.566C272.045 103.463 275.988 108.848 281.802 118.722C279.018 120.555 276.233 122.388 273.449 124.22C258.572 102.454 249.503 88.0707 246.244 81.0709ZM261.786 79.2205C266.185 85.9028 270.583 92.585 274.982 99.2673C277.21 97.801 279.436 96.3351 281.664 94.8688C277.815 89.0218 273.967 83.1748 270.118 77.3278C265.428 70.8041 261.307 63.9387 257.758 56.7311C270.5 74.2703 282.691 92.1853 294.331 110.475C291.268 112.491 288.206 114.507 285.143 116.523C267.811 92.9025 260.026 80.4691 261.786 79.2205ZM236.559 124.559C240.224 130.128 243.889 135.696 247.555 141.265C245.049 142.914 242.543 144.563 240.037 146.213C231.832 134.051 223.907 121.708 216.263 109.185C221.076 115.587 225.613 122.178 229.876 128.957C232.104 127.491 234.331 126.025 236.559 124.559Z" fill="#FF9B50"/>
<path opacity="0.952" fill-rule="evenodd" clip-rule="evenodd" d="M46.4304 195.835C48.3791 194.552 50.3287 193.269 52.2774 191.986C55.2293 197.056 58.6232 201.607 62.4596 205.636C67.591 213.432 72.723 221.228 77.8544 229.024C75.6267 230.49 73.3999 231.956 71.1722 233.423C62.9249 220.893 54.6777 208.364 46.4304 195.835Z" fill="#FF9B50"/>
<path opacity="0.92" fill-rule="evenodd" clip-rule="evenodd" d="M68.6555 189.586C74.9235 200.603 81.6093 211.366 88.7132 221.876C86.7645 223.159 84.8149 224.442 82.8662 225.725C75.8432 214.763 68.4166 204.088 60.5881 193.699C60.4204 191.696 59.5997 189.842 58.1245 188.137C60.0732 186.855 62.0227 185.571 63.9715 184.289C65.1262 186.592 66.6884 188.358 68.6555 189.586Z" fill="#FF9B50"/>
<path opacity="0.93" fill-rule="evenodd" clip-rule="evenodd" d="M81.7133 185.779C87.9444 195.246 94.176 204.713 100.407 214.179C98.1794 215.645 95.9525 217.111 93.7248 218.578C85.8443 206.605 77.9632 194.632 70.0827 182.66C70.8104 180.208 72.3924 178.368 74.8301 177.141C76.6953 180.548 78.9896 183.427 81.7133 185.779Z" fill="#FF9B50"/>
<path opacity="0.959" fill-rule="evenodd" clip-rule="evenodd" d="M121.458 171.59C125.857 178.272 130.255 184.954 134.654 191.637C132.426 193.103 130.199 194.569 127.972 196.035C123.94 189.91 119.907 183.784 115.876 177.659C112.591 170.864 108.654 164.277 104.065 157.897C105.736 156.798 107.406 155.698 109.077 154.598C112.757 160.78 116.885 166.444 121.458 171.59Z" fill="#FF9B50"/>
<path opacity="0.912" fill-rule="evenodd" clip-rule="evenodd" d="M114.089 151.3C116.316 149.833 118.543 148.367 120.771 146.901C123.541 151.693 126.752 155.966 130.403 159.716C135.126 168.161 140.162 176.418 145.513 184.489C143.564 185.772 141.614 187.055 139.666 188.338C130.714 176.293 122.187 163.947 114.089 151.3Z" fill="#FF9B50"/>
<path opacity="0.959" fill-rule="evenodd" clip-rule="evenodd" d="M144.011 156.745C147.793 163.807 151.913 170.673 156.371 177.341C154.423 178.624 152.473 179.907 150.524 181.19C146.676 175.343 142.827 169.496 138.978 163.649C135.509 156.575 131.39 149.709 126.618 143.052C128.288 141.953 129.959 140.853 131.63 139.753C135.31 145.935 139.437 151.599 144.011 156.745Z" fill="#FF9B50"/>
<path opacity="0.954" fill-rule="evenodd" clip-rule="evenodd" d="M143.324 132.056C151.571 144.585 159.818 157.115 168.065 169.644C165.838 171.11 163.611 172.576 161.383 174.042C156.618 166.803 151.853 159.564 147.088 152.325C144.536 146.648 141.332 141.175 137.477 135.905C139.425 134.622 141.375 133.339 143.324 132.056Z" fill="#FF9B50"/>
<path opacity="0.682" fill-rule="evenodd" clip-rule="evenodd" d="M147.5 129.307C159.413 147.405 171.325 165.502 183.238 183.6C182.96 183.784 182.681 183.967 182.403 184.15C181.846 184.517 181.289 184.883 180.732 185.25C168.819 167.152 156.907 149.055 144.994 130.956C145.829 130.407 146.665 129.857 147.5 129.307Z" fill="#FF9B50"/>
<path opacity="0.925" fill-rule="evenodd" clip-rule="evenodd" d="M159.416 131.041C166.197 141.342 172.978 151.645 179.759 161.946C177.532 163.413 175.305 164.879 173.077 166.345C165.746 155.208 158.415 144.07 151.084 132.934C151.098 131.225 150.461 129.651 149.17 128.207C150.841 127.108 152.512 126.008 154.182 124.908C155.513 127.486 157.257 129.531 159.416 131.041Z" fill="#FF9B50"/>
<path opacity="0.897" fill-rule="evenodd" clip-rule="evenodd" d="M167.261 117.496C175.545 129.632 183.331 142.066 190.618 154.799C188.669 156.082 186.72 157.365 184.771 158.648C178.812 149.379 172.486 140.374 165.792 131.633C164.525 127.92 162.604 124.395 160.029 121.06C162.229 119.347 164.64 118.159 167.261 117.496Z" fill="#FF9B50"/>
<path opacity="0.953" fill-rule="evenodd" clip-rule="evenodd" d="M170.603 115.297C172.112 113.139 174.157 111.394 176.735 110.063C180.233 115.967 184.177 121.352 188.567 126.219C193.148 133.18 197.73 140.141 202.312 147.101C200.084 148.568 197.857 150.034 195.63 151.5C187.744 138.921 179.401 126.853 170.603 115.297Z" fill="#FF9B50"/>
<path opacity="0.92" fill-rule="evenodd" clip-rule="evenodd" d="M205.357 100.801C211.209 111.501 217.711 121.987 224.865 132.256C222.637 133.723 220.41 135.189 218.182 136.655C212.318 127.745 206.453 118.836 200.588 109.926C199.138 105.931 197.033 102.128 194.276 98.5172C196.504 97.0508 198.731 95.585 200.958 94.1187C202.425 96.3464 203.89 98.5732 205.357 100.801Z" fill="#FF9B50"/>
<path opacity="0.921" fill-rule="evenodd" clip-rule="evenodd" d="M215.993 84.222C217.942 82.9392 219.892 81.656 221.84 80.3733C226.59 87.7083 231.911 94.5801 237.806 100.991C240.358 106.668 243.562 112.141 247.417 117.411C245.19 118.878 242.963 120.343 240.735 121.81C232.488 109.281 224.241 96.7513 215.993 84.222Z" fill="#FF9B50"/>
<path opacity="0.929" fill-rule="evenodd" clip-rule="evenodd" d="M237.119 76.3024C244.449 87.4393 251.781 98.577 259.111 109.714C256.884 111.18 254.657 112.646 252.429 114.112C245.648 103.811 238.867 93.5084 232.086 83.2068C231.553 80.6271 230.364 78.2163 228.523 75.9747C230.193 74.8751 231.864 73.7755 233.534 72.6758C234.35 74.4315 235.544 75.64 237.119 76.3024Z" fill="#FF9B50"/>
<path opacity="0.957" fill-rule="evenodd" clip-rule="evenodd" d="M270.118 77.3278C273.967 83.1748 277.815 89.0218 281.664 94.8688C279.436 96.3352 277.21 97.801 274.982 99.2673C270.583 92.5851 266.185 85.9028 261.786 79.2205C258.868 72.9848 255.298 66.9542 251.075 61.1297C252.746 60.03 254.417 58.9304 256.087 57.8308C260.315 64.846 264.992 71.3446 270.118 77.3278Z" fill="#FF9B50"/>
<path opacity="0.149" fill-rule="evenodd" clip-rule="evenodd" d="M37.2423 201.883C37.5205 201.7 37.7994 201.516 38.0776 201.333C49.9905 219.431 61.9028 237.528 73.8157 255.626C75.2081 254.71 76.5997 253.794 77.9921 252.877C66.0792 234.779 54.1669 216.682 42.254 198.584C55.0876 216.267 67.4626 234.46 79.3772 253.163C77.4285 254.446 75.4789 255.729 73.5302 257.012C61.4342 238.635 49.3383 220.259 37.2423 201.883ZM38.0776 201.333C39.47 200.416 40.8616 199.5 42.254 198.584C54.1669 216.682 66.0792 234.779 77.9921 252.877C76.5997 253.794 75.2081 254.71 73.8157 255.626C61.9028 237.528 49.9905 219.431 38.0776 201.333Z" fill="#FF9B50"/>
</svg>
