<svg width="145" height="314" viewBox="0 0 145 314" fill="none" xmlns="http://www.w3.org/2000/svg">
<path opacity="0.912" fill-rule="evenodd" clip-rule="evenodd" d="M56.5 0.500029C61.43 0.197029 66.26 0.531029 71 1.50003C72.43 8.71903 72.93 16.053 72.5 23.5C75.67 23.6 78.67 22.93 81.5 21.5C85.25 22.9 86.42 25.57 85 29.5C83.77 30.11 82.44 30.44 81 30.5C77.8 29.93 74.63 29.27 71.5 28.5C71.5 30.17 71.5 31.83 71.5 33.5C74.53 33.66 77.36 32.99 80 31.5C84.65 33.29 85.49 36.12 82.5 40C78.87 40.41 75.37 39.91 72 38.5C71.51 39.79 71.34 41.13 71.5 42.5C70.17 42.5 68.83 42.5 67.5 42.5C67.5 41.17 67.5 39.83 67.5 38.5C64.83 38.5 62.17 38.5 59.5 38.5C59.5 39.83 59.5 41.17 59.5 42.5C58.17 42.5 56.83 42.5 55.5 42.5C55.5 40.17 55.5 37.83 55.5 35.5C51.78 36.05 48.11 36.55 44.5 37C41.36 33.07 42.02 30.23 46.5 28.5C49.13 28.78 51.63 29.45 54 30.5C54.8 28.74 54.63 27.07 53.5 25.5C50.24 26.72 46.9 27.22 43.5 27C41.26 24.62 40.92 21.96 42.5 19C46.3 18.41 49.96 18.91 53.5 20.5C54.33 14.528 54.83 8.52803 55 2.50003C55.72 1.95603 56.22 1.28903 56.5 0.500029ZM60.5 12.5C62.79 12.244 64.96 12.577 67 13.5C68.01 18.288 67.84 20.62 66.5 20.5C64.17 20.5 61.83 20.5 59.5 20.5C59.28 17.721 59.61 15.054 60.5 12.5ZM59.5 25.5C61.05 25.82 61.71 26.82 61.5 28.5C63.6 28.2 65.6 28.53 67.5 29.5C64.91 30.48 62.25 30.81 59.5 30.5C59.5 28.83 59.5 27.17 59.5 25.5Z" fill="#FF9B50"/>
<path opacity="0.996" fill-rule="evenodd" clip-rule="evenodd" d="M100.5 62.5C101.87 62.34 103.21 62.51 104.5 63C114.32 72.63 118.66 84.3 117.5 98C124.6 132.78 131.44 167.62 138 202.5C140.94 209.5 142.94 216.83 144 224.5C144.66 230.42 144.16 236.25 142.5 242C142.28 245.01 141.11 247.51 139 249.5C137.74 249.24 136.74 248.57 136 247.5C132.14 231.24 129.48 214.91 128 198.5C121.35 166.91 115.01 135.24 109 103.5C104.12 90.32 101.29 76.65 100.5 62.5Z" fill="#FF9B50"/>
<path opacity="0.993" fill-rule="evenodd" clip-rule="evenodd" d="M72.5 276.5C73.34 276.16 73.67 275.49 73.5 274.5C76.57 263.06 79.24 251.39 81.5 239.5C81.02 238.52 80.36 237.69 79.5 237C68.83 236.33 58.17 236.33 47.5 237C46.16 243.43 46.83 249.6 49.5 255.5C49.65 259.39 50.31 263.05 51.5 266.5C51.11 269.55 51.78 272.22 53.5 274.5C53.26 275.79 53.6 276.79 54.5 277.5C54.95 287 55.62 296.33 56.5 305.5C57.71 307.56 56.88 308.56 54 308.5C26.86 303.8 9.18998 288.47 0.999982 262.5C-0.0200176 249.3 1.14998 236.3 4.49998 223.5C5.32998 223.17 6.16998 222.83 6.99998 222.5C11.74 224.11 16.57 224.61 21.5 224C24.69 222.07 26.19 219.23 26 215.5C26.33 206.22 27.49 197.05 29.5 188C27.94 182.77 24.44 180.27 19 180.5C15.87 166.98 14.53 153.31 15 139.5C19.96 120.91 32.13 110.57 51.5 108.5C51.8 124.2 51.47 139.86 50.5 155.5C51 157.5 51.5 159.5 52 161.5C53.32 122.17 54.49 82.83 55.5 43.5C60.83 43.5 66.17 43.5 71.5 43.5C72.59 82.5 73.75 121.5 75 160.5C76.01 158.47 76.51 156.3 76.5 154C75.72 138.84 75.05 123.67 74.5 108.5C98.31 111.14 110.98 124.31 112.5 148C111.92 158.62 110.42 169.12 108 179.5C105.8 181.16 103.3 182.32 100.5 183C99.13 184.24 98.13 185.74 97.5 187.5C99.38 198.83 101.21 210.16 103 221.5C104.69 223.92 107.02 224.92 110 224.5C114.16 223.72 118.32 223.06 122.5 222.5C125.42 235.35 126.59 248.35 126 261.5C117.71 287.95 99.88 303.62 72.5 308.5C69.43 308.38 68.93 307.38 71 305.5C71.47 295.83 71.97 286.16 72.5 276.5ZM73.5 274.5C75.59 262.52 77.59 250.52 79.5 238.5C68.83 238.5 58.17 238.5 47.5 238.5C48.43 244.13 49.09 249.8 49.5 255.5C46.83 249.6 46.16 243.43 47.5 237C58.17 236.33 68.83 236.33 79.5 237C80.36 237.69 81.02 238.52 81.5 239.5C79.24 251.39 76.57 263.06 73.5 274.5ZM49.5 255.5C51.08 258.88 51.75 262.54 51.5 266.5C50.31 263.05 49.65 259.39 49.5 255.5ZM51.5 266.5C52.53 268.96 53.2 271.63 53.5 274.5C51.78 272.22 51.11 269.55 51.5 266.5ZM54.5 277.5C57.02 286.58 57.69 295.92 56.5 305.5C55.62 296.33 54.95 287 54.5 277.5Z" fill="#FF9B50"/>
<path opacity="0.986" fill-rule="evenodd" clip-rule="evenodd" d="M73.5 274.5C72.66 274.84 72.33 275.51 72.5 276.5C69.8 285.26 69.13 294.26 70.5 303.5C69.39 304.61 68.72 305.94 68.5 307.5C69.23 309.15 69.39 310.82 69 312.5C65.59 313.62 62.09 313.79 58.5 313C57.45 311.24 57.45 309.41 58.5 307.5C58.25 306.29 57.59 305.62 56.5 305.5C57.69 295.92 57.02 286.58 54.5 277.5C54.74 276.21 54.4 275.21 53.5 274.5C53.2 271.63 52.53 268.96 51.5 266.5C51.75 262.54 51.08 258.88 49.5 255.5C49.09 249.8 48.43 244.13 47.5 238.5C58.17 238.5 68.83 238.5 79.5 238.5C77.59 250.52 75.59 262.52 73.5 274.5Z" fill="#FF9B50"/>
</svg>
